<?xml version="1.0" encoding="utf-8"?>
<!-- Generator: Adobe Illustrator 21.0.0, SVG Export Plug-In . SVG Version: 6.00 Build 0)  -->
<svg version="1.1" id="Layer_1" xmlns="http://www.w3.org/2000/svg" xmlns:xlink="http://www.w3.org/1999/xlink" x="0px" y="0px"
	 viewBox="0 0 32 32" enable-background="new 0 0 32 32" xml:space="preserve">
<g>
	<path fill="#090A1E" d="M14.34,31.77c-1.96-0.11-3.79-0.75-5.48-1.71c-5.65-3.21-8.7-8.11-8.48-14.72
		C0.62,7.8,6.04,1.68,13.33,0.26c0.25-0.05,0.51-0.05,0.76-0.08c0.13-0.03,0.27-0.08,0.34,0.1c-0.21,0.35-0.59,0.31-0.91,0.37
		C8.47,1.69,4.67,4.51,2.36,9.17c-2.24,4.51-2.22,9.17,0.03,13.65c2.31,4.59,6.07,7.4,11.09,8.42c0.42,0.09,0.92-0.02,1.22,0.44
		C14.61,31.87,14.47,31.79,14.34,31.77z"/>
	<path fill="#0A0B20" d="M18.71,0.19c3.33,0.42,6.19,1.87,8.61,4.17c3.49,3.31,5.12,7.43,5.04,12.27c-0.01,0.82-0.23,1.61-0.32,2.42
		c-0.25-0.02-0.23-0.23-0.27-0.39c0.03-0.98,0.15-1.95,0.13-2.93c-0.09-4.02-1.47-7.47-4.22-10.37c-2.42-2.56-5.32-4.15-8.77-4.73
		c-0.25-0.04-0.52-0.06-0.66-0.34C18.36,0.06,18.54,0.16,18.71,0.19z"/>
	<path fill="#0F1027" d="M14.34,31.77c0.11-0.04,0.22-0.09,0.33-0.13c0.26-0.28,0.6-0.2,0.91-0.18c2.06,0.13,4.06-0.17,6.01-0.86
		c1.89-0.66,3.56-1.71,5.09-2.99c0.18-0.15,0.33-0.34,0.59-0.37c0.11,0.02,0.2,0.07,0.16,0.21c-3.62,3.47-7.93,4.86-12.86,4.41
		C14.49,31.85,14.42,31.8,14.34,31.77z"/>
	<path fill="#111122" d="M31.91,18.61c0.04,0.15,0,0.32,0.13,0.44c-0.56,2.84-1.77,5.34-3.72,7.46c-0.13,0.02-0.17-0.06-0.19-0.17
		c0.04-0.3,0.23-0.51,0.41-0.73c1.5-1.85,2.49-3.95,3.03-6.28C31.63,19.08,31.58,18.75,31.91,18.61z"/>
	<path fill="#21223C" d="M18.71,0.19c-0.14,0.05-0.32-0.01-0.43,0.14c-0.19,0.23-0.46,0.22-0.71,0.18c-0.8-0.13-1.6-0.11-2.4,0.01
		c-0.27,0.04-0.55,0.06-0.77-0.19c-0.1-0.05-0.21-0.09-0.31-0.14C15.64-0.16,17.17-0.13,18.71,0.19z"/>
	<path fill="#1B1C34" d="M28.18,26.35c0.05,0.06,0.09,0.11,0.14,0.17c-0.24,0.36-0.55,0.66-0.89,0.93c-0.05-0.05-0.1-0.1-0.16-0.15
		C27.39,26.79,27.71,26.49,28.18,26.35z"/>
	<path fill="#FEFEFE" d="M28.18,26.35c-0.3,0.31-0.6,0.63-0.91,0.94c-3.58,3.31-7.79,4.73-12.61,4.35c-2.99-0.4-5.71-1.48-8.1-3.38
		C-2.68,20.89-0.86,6.42,9.91,1.62c1.45-0.64,2.96-1.02,4.5-1.29c1.29-0.09,2.58-0.11,3.87,0c4.29,0.62,7.85,2.58,10.53,6.05
		c2.63,3.4,3.67,7.28,3.15,11.58c-0.03,0.22-0.04,0.43-0.06,0.65c-0.51,2.45-1.41,4.73-2.93,6.72
		C28.72,25.67,28.45,26.01,28.18,26.35z"/>
	<path fill="#151747" d="M20.37,20.5c0.14-0.58-0.12-1.05-0.43-1.5c-0.26-0.39-0.54-0.78-0.75-1.21c-0.18-0.37-0.33-0.28-0.52-0.05
		c-0.1-0.03-0.16-0.08-0.17-0.19c0.24-0.51,0.64-0.88,0.99-1.3c0.14-0.12,0.26-0.27,0.48-0.23c0.04,0.05,0.07,0.1,0.07,0.16
		c-0.16,0.55,0.31,0.71,0.58,0.99c0.35,0.25,0.8,0.31,1.14,0.59c0.15,0.12,0.31,0.24,0.43,0.39c0.11,0.14,0.24,0.29,0.1,0.46
		c-0.12,0.15-0.29,0.03-0.41-0.04c-0.38-0.24-0.8-0.28-1.23-0.28c-0.33-0.02-0.56-0.3-0.95-0.41c0.27,0.4,0.64,0.43,0.96,0.56
		c0.63,0.24,1.28,0.47,1.76,0.99c0.14,0.15,0.37,0.31,0.22,0.53c-0.13,0.19-0.35,0.03-0.52-0.03c-0.2-0.07-0.4-0.14-0.59-0.23
		c-0.24-0.08-0.57-0.24-0.7,0.01c-0.13,0.25,0.21,0.44,0.4,0.59c0.47,0.34,0.97,0.64,1.22,1.21c0.08,0.17,0.27,0.35,0.08,0.52
		c-0.16,0.15-0.32-0.04-0.44-0.15c-0.38-0.35-0.87-0.37-1.35-0.46c1.1,0.77,2.33,1.33,3.28,2.32c0.27,0.2,0.43,0.51,0.66,0.75
		c0.09,0.13,0.19,0.26,0.05,0.42c-0.52,0.46-1.04,0.91-1.67,1.2c-0.29-0.09-0.51,0.15-0.78,0.17c-2.17,0.6-4.21,0.24-6.14-0.87
		c-0.33-0.19-0.71-0.34-0.85-0.76c0.04-0.3,0.31-0.33,0.51-0.41c1.12-0.48,2.23-0.97,3.21-1.72c0.53-0.41,1.05-0.83,1.19-1.54
		C20.21,20.8,20.41,20.7,20.37,20.5z"/>
	<path fill="#131645" d="M17.38,13.18c0.46-0.62,1.2-0.58,1.83-0.8c0.93-0.33,1.95-0.54,2.49-1.54c0.29-0.53,0.23-1.9-0.23-2.28
		c-0.26-0.21-0.02-0.31-0.07-0.45c-0.07-0.23,0.49-0.54-0.1-0.74c-0.08-0.03,0.16-0.25,0.28-0.34c0.3-0.23,0.59-0.45,0.37-1.1
		c0.36,0.43,0.54,0.42,0.83,0.16c0.52-0.44,1.4-0.55,1.8-0.3c0.76,0.46,1.57,0.18,2.3,0.55c0.02,0.16-0.17,0.13-0.3,0.27
		c0.37,0.12,0.72,0.24,1.07,0.35c-0.05,0.35-0.67,0.13-0.62,0.59c-0.02,0.02-0.04,0.04-0.06,0.07c-0.35,0.07-0.72,0.34-0.96-0.2
		c-0.04-0.1-0.25-0.01-0.36-0.07c-0.15-0.31-0.41-0.11-0.62-0.13c-0.36,0.1-0.65-0.05-0.93-0.26c-0.19-0.15-0.39-0.36-0.67-0.17
		c-0.25,0.5,0,0.88,0.31,1.23c0.12,0.21,0.01,0.45,0.11,0.66c0.03,0.08,0.05,0.17,0.04,0.26c-0.25,0.27-0.08,0.61-0.16,0.91
		c-0.07,0.26-0.08,0.55-0.31,0.75c-0.16,0-0.21-0.12-0.25-0.24c-0.02-0.09-0.03-0.19-0.02-0.28c0.08-0.36-0.12-0.71,0.02-1.08
		c0.05-0.14-0.04-0.31-0.22-0.32c-0.2-0.01-0.23,0.16-0.24,0.31c-0.01,0.28,0.16,0.53,0.17,0.81c0,0.21-0.12,0.34-0.26,0.47
		c-0.22,0.18-0.22,0.39-0.1,0.62c0.15,0.28,0.26,0.58,0.37,0.88c0.12,0.4,0.41,0.7,0.59,1.07c0.06,0.11,0.14,0.25,0.04,0.36
		c-0.13,0.14-0.28,0.05-0.4-0.05c-0.36-0.3-0.69-0.64-0.97-1.02c-0.06-0.09-0.12-0.18-0.2-0.26c-0.09-0.09-0.18-0.23-0.32-0.15
		c-0.17,0.1-0.1,0.26-0.06,0.41c0.19,0.72,0.76,0.95,1.38,1.12c0.27,0.13,0.55,0.25,0.8,0.41c0.17,0.11,0.41,0.19,0.3,0.49
		c-0.25,0.12-0.45-0.03-0.65-0.12c-0.66-0.28-1.31-0.57-2.03-0.67C21,13.77,21,13.77,20.36,12.98c0.26,0.53,0.3,1.03,0.58,1.44
		c0.06,0.08,0.11,0.2,0.03,0.3c-0.11,0.12-0.24,0.07-0.35,0c-0.32-0.19-0.55-0.46-0.78-0.76c-0.29-0.39-0.48-0.9-1.12-1.09
		c0.19,0.57,0.43,0.99,0.66,1.42c0.09,0.17,0.24,0.38,0.06,0.53c-0.19,0.16-0.36-0.06-0.48-0.18c-0.31-0.31-0.73-0.44-1.07-0.71
		c-0.13-0.11-0.24-0.25-0.35-0.4C17.47,13.43,17.3,13.35,17.38,13.18z"/>
	<path fill="#141745" d="M3.09,13.43C3.41,12.36,4.3,11.76,5.13,11c-0.73-0.17-1.27,0.1-1.84,0.29c0.44-1.19,1.74-2.01,3.82-2.44
		C6.59,8.53,6.07,8.47,5.4,8.4c0.63-0.35,1.2-0.35,1.75-0.42C7.47,7.94,7.8,8,8.11,7.94c0.42-0.08-0.1-0.13-0.02-0.22
		c-0.05-0.06-0.05-0.13,0-0.19c1.1,0.19,2.21,0.33,3.25,0.77c0.18,0.09,0.37,0.16,0.43,0.39c-0.1,0.37-0.35,0.22-0.55,0.15
		c-0.5-0.17-0.99-0.36-1.53-0.49c0.1,0.29,0.42,0.44,0.42,0.76C9.92,9.44,9.65,9.25,9.42,9.22C8.96,9.16,8.51,8.98,7.95,9.04
		c0.3,0.34,0.62,0.52,0.91,0.74c0.45,0.33,0.44,0.41-0.07,0.78c-0.36,0.13-0.7,0.31-1.07,0.59c0.48,0.06,0.89,0,1.3,0.04
		c0.27,0.06,0.55,0.09,0.81,0.19c0.29,0.26,0.04,0.44-0.08,0.65c-0.07,0.11-0.35,0.18-0.1,0.38c0.05,0.02,0.1,0.05,0.14,0.09
		c0.03,0.05,0.02,0.1-0.02,0.15l-0.02,0.03c-0.2,0.08-0.39,0.18-0.6,0.23c-0.18,0.04-0.4,0.18-0.53-0.03
		c-0.12-0.19,0.04-0.37,0.14-0.53c0.1-0.16,0.25-0.3,0.32-0.48c-0.12-0.1-0.25,0.02-0.37-0.02c-0.07,0-0.13-0.01-0.19-0.03
		c-0.38-0.09-0.76-0.03-1.14-0.06c-0.21-0.01-0.47,0.03-0.57-0.2c-0.1-0.23,0.12-0.38,0.25-0.55c0.07-0.08,0.15-0.16,0.22-0.23
		c0.3-0.27,0.7-0.4,1.04-0.62c-0.81-0.94-1-0.97-1.84-0.27c-1.13,1.07-1.87,2.36-2.17,3.91c-0.27,0.85-0.09,1.74-0.22,2.6
		c-0.1,0.23-0.04,0.53-0.28,0.71c-0.23-1.05-0.12-2.09,0.02-3.14c-0.24-0.08-0.35,0.15-0.52,0.19C2.71,14.1,3.21,13.67,3.09,13.43z"
		/>
	<path fill="#2B91C1" d="M10.04,9.11C9.83,8.82,9.53,8.6,9.44,8.19c0.67,0.03,1.25,0.3,1.85,0.51c0.13,0.05,0.28,0.27,0.43,0.02
		c0.17-0.17,0.37-0.16,0.57-0.09c0.18,0.09,0.29,0.26,0.38,0.43c0.33,0.59,0.81,0.79,1.45,0.64c0.61-0.04,0.98,0.56,1.56,0.61
		c0.1,0.15,0.28,0.05,0.4,0.13c0.16,0.09,0.32,0.21,0.52,0.13c0.3-0.12,0.47,0.06,0.63,0.26c0.45,0.63,0.17,1.08-0.35,1.47
		c-0.32-0.24-0.59-0.5-1.08-0.38c-0.29,0.07-0.65-0.18-0.95-0.33c-0.91-0.44-1.83-0.52-2.79-0.22c-0.23,0.13-0.47,0.19-0.73,0.09
		c-0.54-0.19-1.12-0.24-1.66-0.45c-0.22-0.31,0.03-0.43,0.24-0.52c0.35-0.15,0.45-0.37,0.23-0.7C10,9.58,10.07,9.34,10.04,9.11z"/>
	<path fill="#101642" d="M11.34,20.11c0.06,0.04,0.13,0.09,0.19,0.13c-0.15,0.55-0.71,0.52-1.12,0.79c0.65,0.43,1.22,0.95,2.05,0.57
		c0.09,0.02,0.16,0.06,0.19,0.16c-0.04,0.23-0.24,0.28-0.41,0.36c0.2-0.04,0.38,0.02,0.52,0.17c0,0.29-0.03,0.57-0.32,0.73
		c-0.15,0-0.3-0.03-0.44,0.02c-0.23,0.08-0.48,0.15-0.37,0.48c0.11,0.33,0.35,0.34,0.62,0.22c0.14-0.06,0.23-0.2,0.36-0.27
		c0.06-0.01,0.12-0.01,0.17,0.03c0.16,0.29,0.03,0.54-0.21,0.62c-0.45,0.15-0.33,0.44-0.24,0.74c-0.22,0.66-0.59,0.94-1.21,0.8
		c-0.52-0.12-1.06,0.06-1.57-0.11c-0.09-0.01-0.18-0.01-0.27,0.01c-0.43-0.24-0.82-0.52-1.16-0.88c0.02-0.1,0.08-0.16,0.18-0.18
		c0.18,0.01,0.3,0.15,0.46,0.2c0.2,0.07,0.38,0.07,0.49-0.14c0.1-0.2-0.04-0.31-0.2-0.4c-0.15-0.09-0.37-0.15-0.28-0.41
		c0.29-0.22,0.75,0.19,0.97-0.24c0.17-0.34-0.34-0.58-0.19-0.95c0.15-0.13,0.32-0.05,0.49-0.04c0.24,0.01,0.49,0,0.53-0.32
		c0.02-0.21-0.08-0.4-0.31-0.42c-0.24-0.02-0.48,0.02-0.5,0.35c-0.01,0.18-0.1,0.33-0.23,0.44c-0.08,0.07-0.16,0.07-0.24,0.02
		c-0.12-0.17-0.04-0.38-0.11-0.57c-0.08-0.23-0.2-0.38-0.46-0.35c-0.19,0.03-0.31,0.15-0.32,0.35c-0.01,0.26,0.17,0.32,0.37,0.36
		c0.16,0.04,0.34,0.02,0.48,0.14c-0.02,0.47-0.14,0.9-0.49,1.22c-0.46,0.53-0.94,0.05-1.42,0.05c-0.06-0.01-0.11-0.01-0.17-0.01
		l0.04-0.04l-0.04,0.04c0-0.09-0.04-0.18-0.05-0.27c0.01-0.16,0.13-0.27,0.22-0.39c0.22-0.52-0.25-0.55-0.51-0.72
		c-0.2-0.13-0.42-0.22-0.66-0.15c-0.08,0.03-0.16,0.05-0.25,0.05C5.73,22.19,5.62,22,5.54,21.8c0.04-0.1,0-0.25,0.16-0.3
		c0.18-0.01,0.32,0.1,0.48,0.15c0.19,0.06,0.39,0.09,0.48-0.15c0.09-0.24-0.05-0.42-0.23-0.54c-0.22-0.14-0.28,0.07-0.37,0.21
		c-0.09,0.14-0.19,0.29-0.39,0.27c-0.05-0.04-0.08-0.09-0.1-0.14c0.03-0.86,0.01-0.89-0.8-1.18c-0.11-0.14-0.14-0.28-0.03-0.44
		c0.26-0.08,0.51-0.04,0.74,0.1c0.17,0.12,0.32,0.28,0.51,0.38c0.15,0.08,0.33,0.15,0.46-0.03c0.11-0.16,0.1-0.34-0.05-0.47
		c-0.15-0.12-0.32-0.23-0.51-0.04c-0.11,0.11-0.17,0.33-0.4,0.18c0.02-0.53-0.15-0.89-0.74-0.96c-0.2-0.02-0.37-0.22-0.43-0.44
		c-0.05-0.17-0.02-0.31,0.21-0.27c0.07,0.01,1.19-0.4,1.24-0.45c0.15,0.01,0.22,0.11,0.26,0.24c0.04,0.15,0.02,0.3-0.03,0.44
		c-0.08,0.23-0.08,0.43,0.17,0.54c0.26,0.12,0.49,0.14,0.63-0.18c0.08-0.16,0.19-0.34,0.37-0.21c0.24,0.17,0.12,0.41,0.04,0.63
		c-0.25,0.39-0.05,0.86-0.21,1.27c-0.05,0.11,0.04,0.21,0.15,0.24c0.14,0.04,0.25,0,0.33-0.13c0.04-0.08,0.04-0.17,0.04-0.25
		c0-0.2-0.13-0.52,0.15-0.55c0.31-0.03,0.36,0.32,0.41,0.57c0.1,0.43-0.14,0.7-0.47,0.91c-0.19,0.12-0.37,0.23-0.39,0.48
		c-0.02,0.22,0.04,0.4,0.29,0.42c0.24,0.02,0.4-0.14,0.33-0.36c-0.16-0.56,0.04-0.69,0.57-0.61c0.29,0.05,0.42-0.17,0.37-0.46
		c-0.05-0.33-0.16-0.63-0.37-0.89c-0.09-0.14-0.16-0.28-0.09-0.45c0.04-0.05,0.1-0.08,0.16-0.09c0.38,0.11,0.58,0.45,0.8,0.73
		c0.44,0.56,0.94,0.62,1.53,0.33C10.97,20.22,11.14,20.11,11.34,20.11z"/>
	<path fill="#FCFCFC" d="M23.39,10.55c0.32-0.53,0-1.22,0.42-1.72c0.09-0.18,0.08-0.5,0.43-0.35c0.17,0.4-0.11,0.74-0.15,1.11
		c-0.05,0.2-0.11,0.4-0.15,0.61c0.08-0.11,0.16-0.2,0.28-0.24c0.09-0.02,0.18-0.01,0.26,0.04c0.18,0.25,0.15,0.58,0.34,0.83
		c0.13,0.17,0.21,0.41,0.48,0.26c0.02-0.01-0.19-0.21-0.16-0.38c0.01-0.06,0.03-0.12,0.07-0.17c0.15-0.1,0.29-0.06,0.43,0.01
		c0.18,0.04,0.29,0.36,0.54,0.16c0.23-0.19,0.46-0.4,0.67-0.61c0.17-0.16,0.4-0.28,0.33-0.58c-0.04-0.13-0.09-0.27-0.08-0.41
		c0.16-0.44-0.43-0.58-0.37-0.98c0.11-0.26,0.3-0.33,0.56-0.28c0.4,0.29,0.72,0.64,0.79,1.15c0.03,0.19,0.11,0.31,0.26,0.41
		c0.06,0.36,0.33,0.59,0.51,0.88c-0.17,0.52-0.17,1.12-0.65,1.5c-0.07,0.06-0.16,0.03-0.24,0.03c-0.39-0.04-0.89,0.33-1.11-0.31
		c0.1-0.4,0.43-0.06,0.61-0.23c-0.2,0.18-0.51-0.61-0.64,0.11c-0.16,0.51,0.24,0.44,0.51,0.5c0.27,0.07,0.57-0.21,0.84,0.05
		c0.1,0.39-0.01,0.66-0.37,0.85c-0.39,0.2-0.75,0.12-1.06-0.13c-0.28-0.23-0.55-0.46-0.93-0.51c-0.45-0.02-0.91,0.12-1.36-0.01
		c-0.41-0.12-0.31-0.74-0.78-0.8C23.29,11.15,23.04,10.96,23.39,10.55z"/>
	<path fill="#1F2F6A" d="M9.4,25.46c0.59,0.06,1.18-0.12,1.78,0.05c0.55,0.16,0.86-0.19,1.04-0.7c0.28-0.25,0.63-0.18,0.96-0.21
		c0.58,0.31,0.79,0.9,1.11,1.42c0.19,0.44,0.38,0.88,0.89,1.04c0.09,0.08,0.18,0.15,0.27,0.23c-0.13,0.32-0.42,0.28-0.66,0.25
		c-1.9-0.24-3.65-0.92-5.28-1.93C9.45,25.59,9.42,25.52,9.4,25.46z"/>
	<path fill="#0F113B" d="M20.34,5.94c-0.32,0.09-0.41-0.05-0.4-0.36c0.02-0.54,0-1.09-0.11-1.65c-0.09,0.53-0.18,1.06-0.28,1.59
		c-0.04,0.19,0.02,0.44-0.32,0.46C18.88,6,18.87,5.77,18.82,5.53c-0.1-0.47-0.11-0.97-0.39-1.48c0,0.58,0,1.09,0,1.59
		c0,0.2-0.02,0.33-0.27,0.32c-0.25,0-0.27-0.14-0.27-0.33c0-1,0-2,0-3c0-0.19-0.06-0.43,0.26-0.38C18.4,2.3,18.73,2.1,18.8,2.57
		c0.1,0.7,0.24,1.4,0.39,2.28c0.24-0.89,0.24-1.63,0.49-2.32c0.59-0.3,0.73-0.24,0.72,0.37C20.38,3.92,20.47,4.93,20.34,5.94z"/>
	<path fill="#37AAD8" d="M15.68,10.3c-0.58,0.06-0.97-0.41-1.49-0.54c-0.57-0.4-1.27-0.56-1.8-1.01c-0.22-0.01-0.45-0.02-0.67-0.03
		c-0.13-0.09-0.26-0.18-0.39-0.27c-0.07-0.29,0.22-0.34,0.33-0.52c0.05-0.11-0.01-0.17-0.09-0.23c-0.88-0.53-1.66-1.16-2.22-2.04
		c-0.1-0.15-0.25-0.24-0.39-0.34C8.87,5.22,8.87,5.1,8.87,4.98l0,0.02C8.76,4.78,8.7,4.57,8.89,4.36c1.11,1.97,2.82,3.18,4.87,3.95
		c0.57,0.21,1.05,0.48,1.09,1.18C14.88,10.02,15.4,10.03,15.68,10.3z"/>
	<path fill="#13143F" d="M14.26,20.72c-0.06-0.02-0.17-0.03-0.17-0.05c-0.05-0.8-0.48-1.62,0.2-2.39c0.38-0.43,0.64-0.97,0.85-1.51
		c0.25-0.66,0.61-1.23,1.18-1.65c0.26-0.2,0.33-0.49,0.44-0.77c0.12,0,0.17,0.08,0.2,0.18c0,0.46,0.09,0.91,0.02,1.37
		c-0.02,0.06-0.05,0.11-0.09,0.16c-0.12,0.05-0.2-0.03-0.33-0.11c0.03,0.43,0.16,0.78,0.3,1.15c0.17,0.44,0.38,0.93-0.1,1.33
		c-0.26-0.55-0.6-1.03-1.03-1.45c-0.11-0.11-0.2-0.12-0.28,0.04c-0.11,0.22-0.16,0.47-0.31,0.67c-0.76,0.74-0.3,1.42,0.34,2.24
		c0.18,0.23,0.58,0.32,0.45,0.74c-0.7,0.08-1.13-0.48-1.68-0.73C14.43,20.19,14.52,20.45,14.26,20.72z"/>
	<path fill="#121644" d="M16.99,27.67c-0.88-0.18-1.5-0.79-2.19-1.29c-0.28-0.08-0.44-0.31-0.61-0.54c-0.45-0.6-0.9-1.19-1.29-1.83
		c-0.06-0.22-0.04-0.45-0.13-0.66c0-0.14,0.04-0.26,0.21-0.28c0.44,0.3,0.64,0.8,0.94,1.21c1.17,1.6,2.73,2.5,4.63,2.86
		c0.15,0.03,0.3,0.03,0.4,0.17c-0.04,0.3-0.3,0.11-0.43,0.2c-0.09,0-0.01,0.09-0.01,0c0-0.02,0.07-0.02,0.11-0.02
		c0.08,0,0.16,0.01,0.22,0.08c-0.22,0.11-0.45,0.11-0.69,0.1C17.76,27.58,17.38,27.71,16.99,27.67z"/>
	<path fill="#0F113C" d="M14.54,5.31c-0.2,0.53-1.22,0.91-1.7,0.65c-0.15-0.08-0.11-0.22-0.11-0.34c0-1,0.01-1.99-0.01-2.99
		c0-0.28,0.08-0.4,0.36-0.36c0.53,0.08,1.2-0.24,1.45,0.57C14.46,3.66,14.43,4.49,14.54,5.31z"/>
	<path fill="#D1290D" d="M25.91,13.54c1.54,0.3,2.09,1.1,2.16,2.61c0.02,0.35,0.19,0.61,0.36,0.89c0.52,0.86,0.76,1.72,0.18,2.68
		c-0.3,0.5-0.48,1.07-0.75,1.69c-0.41-0.55-0.78-1.06-1.16-1.56c-0.19-0.05-0.21-0.23-0.28-0.37c-0.06-0.33-0.23-0.6-0.45-0.85
		c-0.08-0.1-0.17-0.23-0.08-0.35c0.09-0.12,0.23-0.05,0.35,0c0.14,0.05,0.28,0.3,0.43,0.07c0.13-0.21,0.03-0.42-0.15-0.58
		c-0.1-0.09-0.22-0.14-0.32-0.21c-0.14-0.1-0.32-0.2-0.23-0.41c0.08-0.16,0.26-0.09,0.41-0.09c0.68,0.03,0.94-0.3,0.8-1.01
		c-0.09-0.46-0.4-0.87-0.33-1.38c0.24-0.22,0.35,0.01,0.42,0.16c0.26,0.54,0.49,1.09,0.49,1.7c-0.32,0.68-0.65,1.37-0.62,2.16
		c-0.24,0.65-0.03,1.44,0.49,1.83c0.22,0.17,0.23-0.08,0.31-0.18c0.05-0.11,0.09-0.22,0.13-0.34c0.66-1.09,0.6-2.14-0.16-3.15
		c-0.17-0.29-0.05-0.65-0.21-0.94c-0.14-0.92-0.48-1.67-1.48-1.9c-0.2-0.05-0.41-0.15-0.51-0.36
		C25.74,13.56,25.77,13.48,25.91,13.54z"/>
	<path fill="#FB7D27" d="M15.8,16.83c0.31,0.51,1,0.78,0.95,1.52c0.04,0.05,0.06,0.11,0.07,0.18c-0.01,0.17-0.07,0.31-0.2,0.42
		c-0.18,0.04-0.19-0.11-0.24-0.22c-0.07-0.14-0.12-0.3-0.22-0.46c0.1,0.22,0.2,0.4,0.26,0.6c0.36,0.61,0.52,1.26,0.4,1.97
		c-0.2,0.01-0.39,0.02-0.59,0.03c-0.08-0.11-0.06-0.26-0.16-0.37c-0.22-0.71-0.7-1.33-0.76-2.1c0.11-0.31-0.05-0.63,0.05-0.94
		C15.44,17.2,15.45,16.9,15.8,16.83z"/>
	<path fill="#FBBA34" d="M11.34,20.11c-0.36,0.39-0.85,0.46-1.33,0.58c-0.24,0.06-0.37-0.07-0.5-0.21
		c-0.35-0.38-0.69-0.77-1.04-1.15c0.16-0.5,0.62-0.19,0.91-0.36c0.2-0.08,0.39-0.24,0.63-0.15C10.45,19.24,10.9,19.67,11.34,20.11z"
		/>
	<path fill="#0D0E2B" d="M24.46,28.35c0.03,0.12,0.14,0.24-0.03,0.33c-0.12,0.06-0.18,0-0.25-0.1c-0.33-0.51-0.67-1.01-1.02-1.51
		c-0.08-0.11-0.17-0.21,0.01-0.31c0.14-0.07,0.26-0.24,0.44-0.04c0.26,0.28,0.55,0.54,0.9,0.87c-0.17-0.39-0.3-0.73-0.47-1.04
		c-0.12-0.22-0.09-0.33,0.12-0.48c0.25-0.18,0.29,0.05,0.38,0.17c0.29,0.43,0.57,0.87,0.84,1.31c0.08,0.12,0.32,0.25,0.1,0.42
		c-0.28,0.22-0.28-0.13-0.39-0.24c-0.06-0.06-0.09-0.14-0.14-0.23c-0.26,0.34,0.37,0.56,0,0.84c-0.18,0.14-0.26-0.07-0.38-0.13
		c-0.09-0.06-0.17-0.12-0.24-0.2C24.41,28.12,24.39,28.25,24.46,28.35z"/>
	<path fill="#F8B736" d="M10.01,18.81c-0.15,0.08-0.31,0.16-0.46,0.24c-0.14,0.1-0.29,0.01-0.44,0c-1.06-0.03-1.35-0.28-1.59-1.35
		c-0.1-0.45,0.06-0.66,0.49-0.56c0.41,0.1,0.85,0.1,1.24,0.29C9.5,17.9,9.75,18.35,10.01,18.81z"/>
	<path fill="#FAB933" d="M12.47,21.67c-0.81,0.42-1.1,0.33-2.4-0.73c0.53-0.18,1.07-0.29,1.46-0.7c0.48,0.27,0.96,0.53,1.44,0.8
		C13.05,21.45,12.72,21.53,12.47,21.67z"/>
	<path fill="#0E113A" d="M16.35,5.94c-0.3,0.08-0.42-0.02-0.41-0.35c0.02-0.76,0-1.52,0.01-2.28c0-0.31,0.01-0.58-0.42-0.51
		c-0.21,0.03-0.24-0.11-0.25-0.28c-0.01-0.2,0.09-0.26,0.27-0.26c0.45,0.01,0.9,0,1.35,0c0.15,0,0.31,0,0.31,0.22
		c0,0.2-0.04,0.35-0.28,0.32c-0.41-0.06-0.37,0.21-0.38,0.48c-0.04,0.88,0.11,1.76-0.08,2.64c-0.16-0.96,0.02-1.94-0.12-2.9
		c-0.05-0.08-0.09,0.07-0.03,0.01C16.47,4,16.43,4.97,16.35,5.94z"/>
	<path fill="#FAB934" d="M12.73,22.35c-0.19-0.06-0.38-0.13-0.57-0.2c0.09-0.23,0.34-0.21,0.45-0.37c0.16-0.25,0.27-0.54,0.58-0.65
		c0.61,0.14,1.21,0.28,1.82,0.43c0.07,0.85-0.44,1.25-1.44,1.15C13.27,22.61,12.94,22.62,12.73,22.35z"/>
	<path fill="#0D0E2D" d="M27.17,24.34c-0.05-0.06-0.13-0.12-0.16-0.19c-0.09-0.21-0.61-0.24-0.34-0.53c0.22-0.24,0.4,0.18,0.58,0.31
		c0.37,0.26,0.7,0.57,1.04,0.87c0.11,0.09,0.26,0.17,0.13,0.36c-0.13,0.19-0.25,0.07-0.39,0.02c-0.26-0.09-0.5-0.33-0.82-0.19
		c0.22,0.19,0.42,0.36,0.63,0.54c0.09,0.08,0.14,0.16,0.04,0.27c-0.1,0.11-0.18,0.06-0.27-0.02c-0.48-0.4-0.95-0.8-1.44-1.2
		c-0.11-0.09-0.21-0.16-0.08-0.3c0.1-0.1,0.17-0.26,0.36-0.15c0.2,0.11,0.42,0.19,0.63,0.28C27.12,24.39,27.14,24.37,27.17,24.34z"
		/>
	<path fill="#FAB934" d="M15.21,21.58c0.76,0.08,1.52,0,2.28-0.03c0.05,0.05,0.07,0.11,0.07,0.19c-0.02,0.56-0.39,0.77-0.86,0.88
		c-0.56,0.18-1.13,0.15-1.71,0.16c-0.13,0-0.27,0.03-0.35-0.09c-0.1-0.17,0.03-0.28,0.13-0.39C14.98,22.08,15.01,21.77,15.21,21.58z
		"/>
	<path fill="#111333" d="M13.15,29.34c0.29-0.27,0.21-0.54,0.31-0.75c0.05-0.11,0.05-0.28,0.24-0.22c0.16,0.06,0.12,0.19,0.09,0.32
		c-0.14,0.55-0.28,1.09-0.42,1.64c-0.03,0.12-0.05,0.27-0.22,0.26c-0.18-0.01-0.25-0.13-0.25-0.31c0-0.35,0-0.69,0-1.18
		c-0.29,0.4-0.26,0.75-0.38,1.05c-0.04,0.1-0.02,0.29-0.23,0.22c-0.16-0.05-0.17-0.14-0.13-0.3c0.16-0.56,0.3-1.13,0.45-1.7
		c0.03-0.12,0.05-0.29,0.22-0.24c0.13,0.03,0.31,0.05,0.31,0.27C13.14,28.68,13.15,28.97,13.15,29.34z"/>
	<path fill="#FBBB37" d="M8.83,15.53c0.11,0.56,0.21,1.12,0.32,1.67c-0.5,0.36-0.95,0.03-1.4-0.13c-0.06-0.05-0.09-0.11-0.1-0.19
		c0.05-0.53-0.07-1.08,0.14-1.6C8.2,15.06,8.52,15.26,8.83,15.53z"/>
	<path fill="#0A0B2D" d="M6,26.77c-0.11-0.07-0.17-0.09-0.21-0.13c-0.08-0.09-0.1-0.18,0-0.28c0.11-0.1,0.2-0.22,0.31-0.33
		c0.12-0.12,0.18-0.27,0.04-0.39c-0.18-0.17-0.24,0.06-0.34,0.15c-0.08,0.07-0.16,0.15-0.23,0.23c-0.09,0.1-0.17,0.22-0.31,0.1
		c-0.17-0.14-0.08-0.26,0.03-0.37c0.36-0.37,0.72-0.74,1.08-1.11c0.16-0.16,0.29-0.47,0.58-0.12c0.24,0.28,0.62,0.58,0.22,0.91
		c-0.42,0.36-0.73,0.8-1.1,1.19C6.05,26.65,6.03,26.72,6,26.77z"/>
	<path fill="#16143D" d="M8.83,15.53c-0.33-0.09-0.66-0.17-0.99-0.26c-0.32,0.02-0.36,0.24-0.35,0.5c0.01,0.41-0.05,0.83,0.23,1.18
		L7.7,16.99c-0.08,0.19-0.15,0.4-0.34,0.52c-0.4-0.44-0.39-1.01-0.42-1.54c-0.09-1.41,0.22-2.73,1.09-3.86
		c0.15-0.2,0.28-0.46,0.61-0.37c0.06,0.01,0.11,0.02,0.17,0.02c-0.58,0.74-0.35,1.32,0.33,1.82c-0.03,0.08-0.05,0.16-0.08,0.24
		c-0.2,0.04-0.35-0.05-0.51-0.16c-0.23-0.07-0.39-0.49-0.69-0.13c-0.34,0.41-0.3,1,0.08,1.33c0.27,0.18,0.65,0.15,0.88,0.42
		C8.82,15.36,8.83,15.44,8.83,15.53z"/>
	<path fill="#0E0E2F" d="M11.94,28.26c-0.19,0.43-0.39,0.94-0.64,1.41c-0.14,0.25-0.42,0.26-0.69,0.13
		c-0.27-0.12-0.43-0.34-0.33-0.62c0.16-0.47,0.35-0.93,0.58-1.36c0.13-0.25,0.4-0.29,0.67-0.17C11.79,27.75,11.91,27.93,11.94,28.26
		z"/>
	<path fill="#0C0C2F" d="M22.6,28.61c-0.17,0.05-0.21,0.14-0.12,0.3c0.07,0.13,0.13,0.27,0.19,0.41c0.05,0.12,0.13,0.24-0.04,0.33
		c-0.15,0.08-0.23,0-0.3-0.13c-0.26-0.54-0.52-1.09-0.79-1.63c-0.1-0.2,0-0.27,0.16-0.33c0.29-0.12,0.69-0.39,0.87-0.05
		c0.28,0.54,0.59,1.07,0.84,1.62c0.06,0.14-0.07,0.2-0.16,0.24c-0.13,0.05-0.17-0.07-0.23-0.16C22.91,28.99,22.9,28.68,22.6,28.61z"
		/>
	<path fill="#111532" d="M8.87,4.98c0.05,0.11,0.1,0.22,0.14,0.33c0.22,0.22,0.31,0.52,0.42,0.8c0.41,1.06,1.36,1.27,2.28,1.55
		c0.14,0.05,0.33,0.08,0.13,0.29c-0.2,0.14-0.41,0.09-0.62,0.05C9.83,7.75,8.52,7.28,7.36,6.46C7.1,6.27,6.84,6.07,6.54,5.94
		C6.49,5.91,6.43,5.88,6.37,5.86C6.35,5.81,6.33,5.76,6.31,5.7c0.08-0.22,0.24-0.22,0.42-0.14c0.9,0.63,1.78,1.29,2.96,1.63
		c-0.38-0.53-0.7-1-0.84-1.55C8.79,5.42,8.64,5.19,8.87,4.98z"/>
	<path fill="#080929" d="M4.55,25c-0.36-0.05-0.56-0.34-0.69-0.62c-0.13-0.26,0.21-0.32,0.35-0.44c0.3-0.27,0.63-0.52,0.96-0.74
		c0.15-0.1,0.28-0.43,0.51-0.16c0.2,0.23,0.48,0.46,0.37,0.84C5.97,24.15,4.8,25.02,4.55,25z"/>
	<path fill="#0C0D2C" d="M9.83,27.43c0.1-0.13,0.07-0.24-0.07-0.31c-0.16-0.08-0.24,0.06-0.3,0.16c-0.16,0.26-0.3,0.53-0.44,0.79
		c-0.08,0.14-0.24,0.28-0.08,0.46c0.03,0.04,0.13,0.06,0.17,0.04c0.16-0.08,0.27-0.24,0.27-0.41c0-0.15-0.08-0.32,0.13-0.36
		c0.08-0.02,0.19,0.08,0.28,0.13c0.04,0.02,0.1,0.06,0.1,0.08c-0.1,0.31-0.25,0.6-0.48,0.82c-0.23,0.23-0.48,0.14-0.7-0.03
		c-0.24-0.19-0.28-0.44-0.15-0.7c0.2-0.39,0.4-0.78,0.64-1.13c0.19-0.28,0.49-0.34,0.79-0.14c0.24,0.16,0.37,0.37,0.24,0.66
		c-0.06,0.12-0.07,0.33-0.29,0.23C9.78,27.68,9.71,27.59,9.83,27.43z"/>
	<path fill="#111431" d="M11.97,11.21c0.9-0.3,1.77-0.16,2.63,0.17c0.51,0.2,1,0.48,1.59,0.4c0.33-0.04,0.53,0.23,0.69,0.51
		c-0.08,0.13-0.15,0.43-0.28,0.04c-0.07-0.21-0.28-0.43-0.39-0.32c-0.51,0.51-0.76-0.09-1.11-0.22c-0.6-0.22-1.18-0.47-1.99-0.59
		c0.48,0.47,0.85,0.82,1.21,1.18c0.25,0.25,0.47,0.4,0.83,0.19c0.32-0.19,0.25,0.02,0.14,0.2c-0.07,0.1-0.01,0.26-0.15,0.33
		c-0.42,0.13-0.69-0.15-0.95-0.4c-0.45-0.43-0.86-0.92-1.41-1.24c-0.17-0.12-0.36-0.03-0.54-0.04
		C12.12,11.42,11.93,11.45,11.97,11.21z"/>
	<path fill="#0B0C2C" d="M18.29,29.23c-0.04-0.51,0.1-0.72,0.42-0.79c0.28-0.06,0.51,0.02,0.64,0.3c0.05,0.11,0.14,0.25,0.01,0.35
		c-0.15,0.11-0.27,0.07-0.34-0.13c-0.04-0.12-0.12-0.26-0.28-0.18c-0.14,0.07-0.12,0.22-0.09,0.34c0.06,0.32,0.11,0.64,0.19,0.96
		c0.04,0.15,0.05,0.41,0.3,0.29c0.19-0.09,0.11-0.31,0.05-0.47c-0.05-0.11-0.16-0.2-0.21-0.31c-0.04-0.09,0.03-0.17,0.13-0.18
		c0.1-0.01,0.27-0.04,0.3,0c0.17,0.28,0.24,0.59,0.18,0.92c-0.05,0.27-0.26,0.4-0.51,0.41c-0.32,0.02-0.53-0.14-0.59-0.47
		C18.43,29.87,18.34,29.47,18.29,29.23z"/>
	<path fill="#0C0D2D" d="M7.47,27.58c-0.13-0.16-0.14-0.5-0.52-0.17c-0.13,0.12-0.24,0.08-0.33-0.03c-0.09-0.11,0.02-0.19,0.1-0.26
		c0.44-0.41,0.89-0.81,1.32-1.24c0.15-0.15,0.26-0.15,0.43-0.03C8.69,26,8.6,26.13,8.52,26.29c-0.26,0.5-0.51,1-0.77,1.5
		c-0.05,0.1-0.07,0.3-0.24,0.24C7.36,27.97,7.27,27.84,7.47,27.58z"/>
	<path fill="#0A0B29" d="M27.18,26.51c-0.09,0.18-0.18,0.24-0.36,0.14c-0.37-0.19-0.51-0.03-0.38,0.33
		c0.06,0.16,0.05,0.25-0.08,0.31c-0.17,0.08-0.21-0.1-0.27-0.19c-0.32-0.49-0.63-0.98-0.95-1.47c-0.12-0.18-0.11-0.3,0.05-0.43
		c0.1-0.08,0.17-0.19,0.32-0.07c0.52,0.42,1.05,0.82,1.57,1.24C27.12,26.41,27.15,26.46,27.18,26.51z"/>
	<path fill="#0F1133" d="M9.4,25.46c1.52,0.91,3.11,1.61,4.87,1.9c0.41,0.07,0.8,0.14,1.19-0.07c0.19,0.12,0.38,0.24,0.71,0.46
		c-2.62-0.09-4.86-0.8-6.9-2.19C9.31,25.53,9.35,25.49,9.4,25.46z"/>
	<path fill="#CC3319" d="M25.89,12.03c0.33,0.09,0.63,0.24,0.89,0.48c0.26,0.24,0.59,0.33,0.94,0.16c0.35-0.17,0.43-0.46,0.34-0.81
		c-0.04-0.08-0.02-0.13,0.07-0.16c0.41-0.29,0.45-0.63,0.14-1.02c0.12-0.27,0.68,0.11,0.58-0.43c0.17,0.11,0.33,0.27,0.22,0.48
		c-0.32,0.62-0.66,1.23-0.97,1.86c-0.3,0.6-0.99,0.54-1.52,0.02c-0.49-0.47-1.03-0.46-1.49,0.03c-0.06,0.03-0.11,0.02-0.16-0.04
		c-0.06-0.18,0.02-0.31,0.14-0.43C25.32,11.98,25.62,12.1,25.89,12.03z"/>
	<path fill="#F68727" d="M9.14,13.57c-1.21-0.63-1.23-0.76-0.33-1.82c0.2-0.13,0.4-0.24,0.66-0.05c-0.25,0.37-0.61,0.66-0.8,1.12
		c0.4,0,0.73-0.21,1.09-0.15C9.55,12.97,9.34,13.27,9.14,13.57z"/>
	<path fill="#131334" d="M20.98,28.07c-0.01,0.2-0.18,0.2-0.28,0.23c-0.17,0.06-0.33,0.11-0.23,0.35c0.08,0.17,0.1,0.4,0.39,0.24
		c0.09-0.05,0.21-0.05,0.26,0.09c0.05,0.14-0.05,0.21-0.15,0.23c-0.34,0.08-0.22,0.26-0.15,0.48c0.09,0.31,0.25,0.22,0.43,0.13
		c0.12-0.06,0.27-0.09,0.32,0.07c0.08,0.23-0.13,0.21-0.26,0.27c-0.46,0.22-0.78,0.22-0.89-0.41c-0.06-0.38-0.25-0.74-0.36-1.11
		c-0.04-0.15-0.25-0.34-0.04-0.46c0.26-0.14,0.54-0.26,0.85-0.25C20.92,27.94,20.95,28.03,20.98,28.07z"/>
	<path fill="#FABA36" d="M8.82,15.27c-0.35-0.01-0.67-0.11-0.97-0.31c0.06-0.57,0.1-1.15,0.74-1.41c0.15,0.09,0.31,0.17,0.46,0.26
		C8.98,14.3,8.9,14.79,8.82,15.27z"/>
	<path fill="#101233" d="M5.64,21.26c0,0.04,0,0.09,0,0.13c0.04,0.03,0.06,0.06,0.04,0.1c-0.01,0.03-0.03,0.05-0.04,0.05
		c-0.04,0.09-0.07,0.17-0.11,0.26c-0.95-1.42-1.56-2.96-1.71-4.67c0.07-0.22-0.06-0.49,0.13-0.69C3.97,16.45,4,16.47,4,16.48
		c0.29,1.07,0.46,2.18,0.74,3.25c0.01,0.13-0.02,0.27,0.11,0.37C5.23,20.41,5.34,20.91,5.64,21.26z"/>
	<path fill="#1D1739" d="M7.44,17.52c-0.02-0.23,0.08-0.4,0.26-0.54c0.47,0.19,0.95,0.29,1.45,0.21c0.11,0.05,0.1,0.15,0.1,0.24
		c-0.56,0.08-1.09-0.06-1.7-0.27c0.12,0.61,0.37,1.06,0.58,1.53c0.11,0.25,0.33,0.24,0.55,0.25c0.29,0.01,0.59-0.04,0.87,0.11
		c-0.3,0.34-0.79-0.11-1.07,0.27c-0.06,0-0.11,0.01-0.17,0.01C7.74,18.99,7.34,18.14,7.44,17.52z"/>
	<path fill="#E23F10" d="M16.22,20.62c0.13,0.08,0.02,0.16,0.01,0.24c-0.66,0.05-1.32,0.02-1.97-0.14c-0.02-0.3-0.04-0.6-0.07-0.99
		c0.64,0.31,1.13,0.8,1.79,0.9C16.06,20.55,16.14,20.55,16.22,20.62z"/>
	<path fill="#141439" d="M18.84,27.58c-0.03-0.09-0.31,0.12-0.17-0.14c0.04-0.07,0.17-0.09,0.26-0.13c0.92-0.36,1.9-0.53,2.82-0.92
		c0.21-0.09,0.44-0.14,0.64-0.26c0.22-0.03,0.43-0.43,0.66-0.01C21.75,26.92,20.35,27.42,18.84,27.58z"/>
	<path fill="#1C1D36" d="M15.78,29.9c-0.13-0.27,0.3-0.77-0.32-0.97c-0.13-0.04-0.06-0.27,0.08-0.28c0.31-0.02,0.63,0.01,0.95,0.05
		c0.12,0.02,0.14,0.22,0.06,0.24c-0.66,0.19-0.26,0.75-0.39,1.11c-0.1,0.28,0.15,0.84-0.19,0.82c-0.44-0.03-0.09-0.57-0.19-0.86
		C15.77,30.01,15.78,29.98,15.78,29.9z"/>
	<path fill="#19173E" d="M15.21,21.58c-0.04,0.4-0.3,0.69-0.55,1.04c0.74,0.04,1.4-0.06,2.07-0.15c0.04,0.08,0.03,0.15-0.02,0.22
		c-0.22,0.24-0.51,0.31-0.8,0.33c-0.65,0.04-1.31,0.05-1.96,0c-0.28-0.02-0.61-0.04-0.72-0.41c0.09-0.11,0.21-0.08,0.32-0.05
		c0.95,0.06,1.12-0.05,1.45-1C15.07,21.57,15.14,21.57,15.21,21.58z"/>
	<path fill="#101039" d="M16.73,22.59c0-0.04,0-0.08,0-0.12c0.51-0.06,0.67-0.43,0.77-0.86c0.26,0.33,0.55,0.3,0.89,0.1
		c0.44-0.26,0.9-0.49,1.36-0.7c0.2-0.17,0.41-0.34,0.61-0.51c0.17,0.15,0,0.27-0.03,0.4c-0.76,1.02-1.92,1.32-3,1.76
		C17.13,22.74,16.91,22.77,16.73,22.59z"/>
	<path fill="#15122E" d="M16.45,18.68c0.05,0.07,0.1,0.15,0.14,0.22c0.77-0.25,1.29-0.89,1.97-1.29c0.03,0.04,0.06,0.09,0.09,0.13
		c-0.38,0.53-0.81,1.01-1.43,1.25c-0.38,0.15-0.47,0.36-0.37,0.78c0.08,0.33,0.38,0.74-0.04,1.07c-0.06-0.7-0.19-1.38-0.5-2.02
		C16.27,18.68,16.34,18.65,16.45,18.68z"/>
	<path fill="#F2BA33" d="M19.76,21.01c-0.55,0.52-1.22,0.84-1.92,1.08c-0.53,0.18-0.08-0.42-0.33-0.48c0,0-0.01-0.06-0.01-0.06
		C18.25,21.36,19,21.19,19.76,21.01z"/>
	<path fill="#232434" d="M24.72,24.91c-0.04-0.1-0.08-0.2-0.13-0.31c0-0.06,0.02-0.12,0.06-0.17c0.33-0.31,0.66-0.62,0.96-0.96
		c0.39-0.45,0.72-0.92,0.59-1.57c0.04-0.12,0.1-0.23,0.23-0.29c0.32,0.7,0.21,1.3-0.32,1.87C25.65,23.97,25.25,24.51,24.72,24.91z"
		/>
	<path fill="#23233B" d="M17.62,29.81c0.02,0.4,0.03,0.62,0.04,0.83c0.01,0.14-0.01,0.27-0.18,0.27c-0.16,0-0.2-0.12-0.21-0.26
		c-0.04-0.58-0.08-1.16-0.13-1.74c-0.01-0.15,0.03-0.26,0.19-0.27c0.18-0.02,0.19,0.14,0.2,0.26C17.57,29.26,17.6,29.63,17.62,29.81
		z"/>
	<path fill="#FAB633" d="M29.17,22.35c-0.27-0.02-0.45-0.14-0.46-0.43c0-0.28,0.17-0.46,0.43-0.46c0.27-0.01,0.44,0.16,0.46,0.44
		C29.62,22.18,29.44,22.31,29.17,22.35z"/>
	<path fill="#FAB834" d="M3.03,21.66c-0.25-0.06-0.45-0.2-0.43-0.49c0.02-0.28,0.21-0.43,0.48-0.42c0.28,0.01,0.43,0.19,0.42,0.47
		C3.48,21.51,3.29,21.63,3.03,21.66z"/>
	<path fill="#00001E" d="M20.34,5.94c-0.32-0.2,0.02-0.4,0.01-0.6c-0.03-0.82-0.01-1.65-0.02-2.47c0-0.14,0.04-0.32-0.14-0.4
		c-0.19-0.08-0.29,0.01-0.4,0.19c-0.06,0.1-0.07-0.08-0.12-0.12c0.01-0.49,0.38-0.2,0.57-0.26c0.18-0.05,0.26,0.07,0.26,0.26
		c-0.01,1.09,0,2.17-0.01,3.26C20.5,5.9,20.44,5.95,20.34,5.94z"/>
	<path fill="#21182D" d="M26.42,21.62c-0.04,0.11-0.08,0.21-0.13,0.32c-0.32-0.22-0.44-0.5-0.27-0.88c0.16-0.34,0.14-0.71,0.14-1.07
		c0.07-0.22,0.18-0.42,0.38-0.54c0.14,0.1,0.12,0.27,0.16,0.41C26.62,20.45,26.42,21.01,26.42,21.62z"/>
	<path fill="#E2E4E7" d="M12.99,24.03c0.62,0.77,1.1,1.65,1.81,2.35c-0.04,0.05-0.09,0.09-0.13,0.14c-0.31,0.01-0.41-0.22-0.5-0.46
		c-0.31-0.45-0.62-0.91-0.93-1.36C13,24.53,12.83,24.34,12.99,24.03z"/>
	<path fill="#141745" d="M13.34,12.92c-0.25-0.1-0.49-0.19-0.74-0.29c-0.71-0.12-1.43-0.02-2.15-0.05
		c-0.23-0.01-0.47,0.06-0.68-0.06l-0.03-0.04c0.11-0.29,0.37-0.28,0.6-0.28c0.75-0.01,1.5-0.05,2.25,0.03
		c0.36,0.15,0.84,0.13,0.94,0.67C13.48,12.97,13.41,12.97,13.34,12.92z"/>
	<path fill="#CC3622" d="M24.91,12.61c0.06,0.01,0.12,0.02,0.17,0.03c-0.01,0.57,0.45,0.7,0.82,0.9c-0.05,0.04-0.11,0.07-0.16,0.11
		c-0.14,0.15-0.28,0.05-0.43,0.01c-0.18-0.03-0.3-0.42-0.55-0.06c-0.15,0.21-0.25,0.01-0.28-0.13c-0.07-0.31,0.03-0.58,0.26-0.81
		C24.79,12.63,24.85,12.61,24.91,12.61z"/>
	<path fill="#11132B" d="M6.37,5.86c0.05-0.01,0.11-0.01,0.16-0.02c0.53,0.56,1.05,1.13,1.56,1.7c0,0.06-0.01,0.12-0.01,0.17
		C7.27,7.33,6.7,6.71,6.37,5.86z"/>
	<path fill="#111331" d="M15.18,13.06c0.04-0.09,0.08-0.19,0.12-0.28c0.01,0.04,0.01,0.09,0.02,0.13c0.03,0.31,0.73-0.13,0.5,0.46
		c-0.17,0.45-0.41,0.81-0.97,0.74c-0.09,0.03-0.17,0.05-0.27,0.03c-0.15-0.32,0.15-0.31,0.28-0.35
		C15.25,13.65,15.35,13.43,15.18,13.06z"/>
	<path fill="#CD4833" d="M28.33,9.38c-0.26,0.09-0.38-0.11-0.37-0.29c0.03-0.55-0.38-0.82-0.66-1.17c-0.07-0.09-0.1-0.18-0.06-0.29
		C27.85,8.05,28.17,8.66,28.33,9.38z"/>
	<path fill="#00001A" d="M16.35,5.94c0-0.99,0-1.98,0-2.97c0.04,0,0.08,0,0.12,0c0,0.98,0,1.97,0,2.95
		C16.43,5.93,16.39,5.94,16.35,5.94z"/>
	<path fill="#1E203F" d="M14.51,14.07c0.11,0.01,0.22,0.02,0.33,0.03c-0.41,0.22-0.71,0.27-0.75-0.37
		c-0.03-0.42-0.51-0.53-0.74-0.81c0.07-0.01,0.15-0.03,0.22-0.04C14.3,12.93,14.4,13.5,14.51,14.07z"/>
	<path fill="#1E203F" d="M9.78,12.51c0.94,0.06,1.9-0.15,2.83,0.11c-0.94-0.07-1.89-0.03-2.83,0.01C9.78,12.6,9.77,12.56,9.78,12.51
		z"/>
	<path fill="#070824" d="M5.9,22.33c0.04-0.04,0.08-0.09,0.12-0.13c0.23,0.03,0.35,0.21,0.48,0.37c0.18,0.35,0.56,0.55,0.69,0.94
		c-0.01,0.1-0.03,0.2-0.04,0.3C6.66,23.39,6.25,22.88,5.9,22.33z"/>
	<path fill="#37AAD8" d="M17.23,10.82c-0.23,0.01-0.38-0.31-0.68-0.08c-0.21,0.16-0.34-0.14-0.47-0.31c0.17,0,0.36,0.04,0.5-0.02
		C17.03,10.21,17.16,10.45,17.23,10.82z"/>
	<path fill="#151635" d="M3.09,13.43c0.27,0.19-0.2,0.61,0.23,0.75c-0.04,0.05-0.08,0.1-0.12,0.14c-0.14,0.11-0.26,0.39-0.45,0.25
		c-0.22-0.15,0.07-0.32,0.1-0.5C2.89,13.86,3.01,13.65,3.09,13.43z"/>
	<path fill="#00001A" d="M14.54,5.31c-0.22-0.83-0.18-1.65-0.02-2.48C14.66,3.66,14.63,4.49,14.54,5.31z"/>
	<path fill="#232038" d="M16.88,14.51c-0.04-0.06-0.08-0.11-0.12-0.17c0.11-0.44,0.26-0.86,0.62-1.17c0.08,0.08,0.17,0.16,0.25,0.24
		C17.31,13.73,17.3,14.27,16.88,14.51z"/>
	<path fill="#051351" d="M14.17,26.06c0.17,0.15,0.33,0.31,0.5,0.46c0.17,0.18,0.34,0.37,0.51,0.55
		C14.6,26.99,14.32,26.59,14.17,26.06z"/>
	<path fill="#3B1D2C" d="M27.24,7.63c0.02,0.1,0.04,0.19,0.06,0.29c-0.21,0.01-0.42,0.02-0.53,0.25c-0.07,0.11,0.01,0.38-0.28,0.27
		c-0.22-0.55,0.21-0.7,0.55-0.9c0,0-0.01,0-0.01,0C27.13,7.48,27.18,7.57,27.24,7.63z"/>
	<path fill="#070824" d="M8.22,24.55c-0.04,0.04-0.08,0.09-0.12,0.13c-0.37-0.23-0.67-0.54-0.95-0.87c0.06-0.02,0.12-0.03,0.17-0.05
		C7.78,23.84,8.05,24.15,8.22,24.55z"/>
	<path fill="#232B52" d="M8.89,4.36C8.88,4.57,8.88,4.79,8.87,5C8.39,4.75,8.76,4.32,8.5,3.88C8.84,4.04,8.86,4.2,8.89,4.36z"/>
	<path fill="#141439" d="M16.99,27.67c0.39-0.17,0.77-0.19,1.15,0.01C17.76,27.75,17.37,27.88,16.99,27.67z"/>
	<path fill="#11132B" d="M6.73,5.56C6.59,5.61,6.45,5.66,6.31,5.7C6.23,5.49,6.15,5.27,6.07,5.06c0.05-0.04,0.1-0.08,0.15-0.13
		C6.39,5.14,6.56,5.35,6.73,5.56z"/>
	<path fill="#3D303A" d="M13.18,21.13c-0.14,0.26-0.3,0.51-0.58,0.65c-0.04-0.04-0.09-0.08-0.13-0.12c0.16-0.21,0.33-0.42,0.49-0.63
		C13.06,21.01,13.13,21.05,13.18,21.13z"/>
	<path fill="#D3D3D8" d="M24.46,28.35c-0.19-0.24-0.37-0.47-0.56-0.71c0.33,0.1,0.52,0.32,0.68,0.58
		C24.54,28.27,24.5,28.31,24.46,28.35z"/>
	<path fill="#FB7925" d="M21.52,19.54c0.35,0.13,0.7,0.26,1.1,0.41c-0.51-0.67-0.9-0.95-1.59-1.14c-0.17-0.05-0.31-0.14-0.43-0.25
		c-0.09-0.13-0.11-0.26,0-0.4c0.6-0.05,1.17,0,1.66,0.45c-0.22-0.59-0.69-0.87-1.21-1.04c-0.23-0.08-0.46-0.1-0.58-0.35
		c-0.13-0.35,0.11-0.4,0.33-0.32c0.19,0.07,0.39,0.11,0.56,0.19c0.62,0.29,1.26,0.46,1.93,0.58c0.14,0.07-0.13,0.27,0.12,0.34
		c0.19,0.06,0.35,0.22,0.46,0.41c0.04,0.22,0.32,0.18,0.39,0.37c0,0.24-0.2,0.31-0.34,0.43c-0.04,0.33,0.33,0.5,0.32,0.82
		c0.02,0.26,0.03,0.51-0.18,0.71c0.02,0.13-0.27-0.1-0.14,0.1c0.14,0.21,0.28,0.41,0.32,0.66c-0.06,0.81,0.08,1.59,0.38,2.35
		c0.09,0.22,0.17,0.45,0.01,0.68c0,0.02-0.01,0.05-0.02,0.07c-0.21-0.25-0.43-0.49-0.64-0.74c-0.56-0.72-1.06-1.46-1.26-2.38
		c-0.11-0.5-0.5-0.79-0.89-1.07c-0.21-0.15-0.42-0.31-0.53-0.56C21.16,19.6,21.22,19.47,21.52,19.54z"/>
	<path fill="#F65D21" d="M22.38,26.13c-1.03,0.77-2.22,1.04-3.46,1.18c-2.5-0.21-4.29-1.57-5.63-3.64
		c-0.12-0.18-0.22-0.37-0.33-0.55c-0.38-0.34-0.38-0.4-0.02-0.6c0.78,0.68,1.63,1.29,2.32,2.07c1.93,1.52,4.08,2.13,6.5,1.63
		C21.96,26.18,22.17,26.16,22.38,26.13z"/>
	<path fill="#244D89" d="M15.25,24.59c-0.85-0.55-1.61-1.21-2.3-1.96c0.07-0.13,0.16-0.11,0.26-0.03c1.17,0.42,2.34,0.38,3.51-0.01
		c1.38-0.17,2.5-0.9,3.61-1.69c0,0.8-0.57,1.23-1.11,1.64C18.03,23.47,16.68,24.12,15.25,24.59z"/>
	<path fill="#EB4616" d="M21.52,19.54c-0.13,0.04-0.25,0.06-0.14,0.25c0.15,0.25,0.38,0.4,0.61,0.56c0.46,0.3,0.81,0.69,0.92,1.26
		c0.12,0.61,0.41,1.12,0.76,1.62c0.13,0.19,0.31,0.37,0.28,0.63c-0.95-0.85-2.01-1.55-3.16-2.09c-0.23-0.11-0.44-0.23-0.31-0.53
		c0.17-0.4,0.34,0,0.5,0.02c0.57,0.09,1.11,0.25,1.51,0.75C22.24,21.49,22,21,21.46,20.69c-0.44-0.25-0.96-0.51-0.87-1.23
		C20.9,19.51,21.21,19.38,21.52,19.54z"/>
	<path fill="#FAB535" d="M18.57,17.61c-0.49,0.54-0.99,1.07-1.69,1.34c-0.11,0.04-0.22,0.16-0.29-0.05
		c0.05-0.12,0.09-0.24,0.14-0.36c0.31-0.75,0.76-1.42,1.25-2.05c0.46-0.59,1.16-0.65,1.6-0.18C19.25,16.74,18.91,17.17,18.57,17.61z
		"/>
	<path fill="#F77827" d="M19.59,16.3c-0.89-0.29-1.17-0.19-1.66,0.54c-0.38,0.57-0.79,1.13-1.19,1.69c0-0.06,0.01-0.12,0.01-0.18
		c0.29-0.35,0.23-0.8,0.04-1.07c-0.3-0.42-0.31-0.88-0.44-1.33c-0.04-0.13-0.18-0.28,0.03-0.38c0.22-0.11,0.24,0.09,0.31,0.21
		c0.05,0.09,0.04,0.22,0.18,0.24c0.3,0.13,0.59,0.16,0.89-0.05c0.3-0.22,0.67-0.22,1.03-0.23c0.28-0.01,0.55-0.02,0.83-0.05
		c0.2-0.02,0.47-0.04,0.34,0.33C19.82,16.11,19.7,16.21,19.59,16.3z"/>
	<path fill="#E74012" d="M23.32,17.76c-0.93,0.08-1.7-0.41-2.52-0.75c-0.21-0.09-0.32-0.01-0.35,0.21
		c-0.14-0.12-0.27-0.27-0.43-0.36c-0.36-0.2-0.32-0.43-0.08-0.69c0.21-0.35,0.47-0.2,0.72-0.08c0.36,0.18,0.71,0.4,1.02,0.66
		c0.68,0.58,1.45,0.65,2.27,0.48c0.25-0.05,0.5-0.08,0.76,0c0.07,0.03,0.12,0.08,0.16,0.14C24.44,17.84,23.91,17.95,23.32,17.76z"/>
	<path fill="#321C37" d="M24.7,17.34c-1.55,0.48-2.85-0.05-4.04-1.04c-0.19-0.16-0.42-0.42-0.71-0.13
		c-0.01-0.05-0.01-0.11-0.02-0.16c-0.04-0.26-0.19-0.23-0.37-0.16c-0.31,0.12-0.62,0.09-0.94,0.06c0.45-0.49,1.21-0.6,1.83-0.23
		c0.57,0.34,1.11,0.72,1.65,1.11c0.37,0.26,0.73,0.37,1.19,0.3c0.45-0.07,0.93-0.12,1.38,0.08C24.75,17.22,24.75,17.28,24.7,17.34z"
		/>
	<path fill="#EB4212" d="M20.59,18.16c0,0.13,0,0.27,0,0.4c-0.51-0.09-1.01-0.19-1.13-0.85C19.94,17.6,20.22,18,20.59,18.16z"/>
	<path fill="#FCBA34" d="M24.74,17.22c-1.52,0.29-2.86-0.1-4-1.16c-0.67-0.62-1.38-0.49-2.11-0.15c-0.35-0.04-0.67,0.05-0.94,0.28
		c-0.35,0.3-0.63,0.29-0.83-0.17c0-0.04,0.01-0.07,0.04-0.1c0.23-0.53,0.3-1.12,0.57-1.63c0.1-0.19,0.11-0.48,0.43-0.48
		c0.57,0.22,1.06,0.59,1.57,0.97c-0.33-0.63-0.67-1.27-1-1.9c0.53-0.28,0.5-0.25,0.89,0.15c0.54,0.54,0.73,1.4,1.66,1.72
		c-0.57-0.61-0.54-1.38-0.99-2.02c0.67-0.03,0.71,0.57,1.01,0.86c0.3-0.06-0.31-0.53,0.21-0.49c1.15,0.52,2.28,1.07,3.39,1.67
		c0.81,0.43,0.95,0.74,0.85,1.69C25.28,16.77,25.47,17.45,24.74,17.22z"/>
	<path fill="#FDFDFD" d="M25.35,16.47c0.1-0.69-0.04-1.2-0.75-1.53c-1.02-0.46-1.99-1.01-2.98-1.54c-0.14-0.07-0.35-0.08-0.38-0.3
		c0.99,0.18,1.9,0.62,2.83,0.98c0.14-0.4-0.36-0.63-0.26-1.02c0.26-0.55,0.59-0.69,1.03-0.43c-0.06,0.31-0.37,0.55-0.23,0.92
		c0.21-0.06,0.09-0.33,0.36-0.43c0.1,0.11,0.24,0.28,0.39,0.44c0.53,0.36,1.16,0.59,1.52,1.17c0.12,0.33,0.25,0.65,0.37,0.98
		c0.41,1.17,0,1.69-1.21,1.47c0.14,0.25,0.37,0.3,0.56,0.4c0.16,0.08,0.31,0.16,0.29,0.38c-0.02,0.28,0.11,0.65-0.15,0.8
		c-0.23,0.13-0.34-0.25-0.54-0.36c-0.07-0.04-0.13-0.08-0.3-0.19c0.21,0.5,0.72,0.72,0.65,1.24c-0.04,0.21-0.15,0.38-0.3,0.53
		c-0.29,0.19-0.45,0.05-0.59-0.21c-0.07-0.16,0.07-0.33-0.01-0.47c0.04,0.42-0.25,0.56-0.59,0.67c-0.77,0.07-0.94-0.04-1.26-0.78
		c0.08-0.18,0.35-0.17,0.39-0.4c0.13-0.52,0.7-0.34,0.97-0.63c0.08-0.04-0.08-0.07-0.01-0.01c0.03,0.02,0.02,0.05-0.02,0.06
		c-0.44,0.09-0.82,0.46-1.31,0.32c-0.19-0.15-0.38-0.32-0.58-0.46c-0.28-0.2,0.07-0.19,0.09-0.29c0.53-0.1,1.05-0.19,1.55-0.38
		C25.33,17.23,25.28,16.82,25.35,16.47z"/>
	<path fill="#F77F22" d="M23.95,9.63c0.09-0.39,0.18-0.77,0.27-1.16c-0.08-0.07-0.04-0.15,0-0.22c-0.05,0.01-0.07,0.07-0.11,0.1
		c-0.14,0.13-0.25,0.29-0.44,0.35c-0.18-0.22,0.12-0.4,0.04-0.61c-0.05-0.04-0.07-0.09-0.06-0.15c0.31-0.02,0.49-0.24,0.67-0.46
		c0.04-0.04,0.08-0.08,0.13-0.12c0.22-0.02,0.43-0.13,0.66-0.14c0.08,0.04,0.14,0.09,0.17,0.18c-0.04,0.27,0.09,0.48,0.25,0.67
		c0.33,0.36,0.65,0.73,0.45,1.28c-0.09,0.22-0.16,0.44-0.37,0.58c-0.29,0.06-0.32-0.14-0.3-0.35c0.02-0.24,0.06-0.47,0.09-0.7
		c-0.04,0.29-0.08,0.58-0.12,0.88c-0.11,0.15-0.25,0.2-0.43,0.15c-0.29-0.41-0.08-0.84-0.04-1.2c-0.26,0.35,0.02,0.93-0.41,1.29
		c-0.06,0.02-0.12,0.04-0.18,0.06C23.99,10.01,24.02,9.79,23.95,9.63z"/>
	<path fill="#F8C335" d="M23.94,13.17c0.02,0.31,0.28,0.51,0.37,0.78c0.13,0.37-0.13,0.15-0.25,0.13c-0.31-0.37-0.75-0.51-1.15-0.73
		c-0.22-0.25-0.57-0.37-0.73-0.67c-0.13-0.23-0.33-0.48,0.05-0.67c0.37,0.41,0.75,0.82,1.12,1.23c0.05-0.04,0.09-0.08,0.14-0.12
		c-0.23-0.46-0.62-0.84-0.74-1.36c-0.02-0.17-0.06-0.41,0.21-0.22c0.18,0.12,0.27,0.38,0.48,0.49c0.14,0.12,0.24,0.28,0.32,0.45
		C23.93,12.69,23.82,12.96,23.94,13.17z"/>
	<path fill="#F87F2A" d="M17.89,13.82c-0.32,0.47-0.49,1.01-0.63,1.55c-0.06,0.23-0.07,0.48-0.36,0.56
		c0.02-0.47-0.16-0.94-0.01-1.41c0.3-0.33,0.15-0.98,0.75-1.09C17.72,13.55,17.8,13.69,17.89,13.82z"/>
	<path fill="#F8832B" d="M22.23,12.01c-0.2,0.31-0.02,0.51,0.18,0.72c0.18,0.2,0.44,0.34,0.51,0.63c-0.66-0.15-1.24-0.39-1.47-1.13
		c-0.09-0.3-0.2-0.59,0.14-0.76c0.28-0.14,0.34,0.23,0.52,0.33C22.17,11.83,22.19,11.93,22.23,12.01z"/>
	<path fill="#F2F2F2" d="M27.04,7.53c-0.14,0.31-0.64,0.43-0.48,0.91c-0.15,0.11-0.32-0.03-0.47,0.06
		c-0.29-0.05-0.44-0.27-0.58-0.51c-0.11-0.2-0.13-0.41-0.02-0.62c0.03-0.05,0.08-0.1,0.13-0.13c0.1-0.02,0.21-0.03,0.3-0.05
		c0.15-0.04,0.34-0.1,0.42,0.02c0.15,0.22-0.31,0.15-0.17,0.43C26.43,7.6,26.73,7.44,27.04,7.53z"/>
	<path fill="#F25C19" d="M22.82,9.77c-0.17-0.26-0.28-0.54-0.31-0.85c-0.02-0.27,0.09-0.52,0.35-0.55c0.29-0.04,0.59,0.3,0.52,0.45
		c-0.19,0.4,0.04,0.81-0.11,1.18C23.04,10.09,22.9,9.99,22.82,9.77z"/>
	<path fill="#F58929" d="M23.41,12.14c-0.27-0.06-0.38-0.26-0.52-0.49c-0.11-0.18-0.09,0.07-0.14,0.11
		c-0.14-0.31-0.27-0.63-0.42-0.94c-0.16-0.31-0.15-0.53,0.21-0.66c0.41,0.1,0.33,0.55,0.56,0.78c0.09,0.15,0.22,0.24,0.38,0.29
		c0.05,0.03,0.09,0.07,0.11,0.12c0.01,0.09-0.02,0.17-0.05,0.24C23.44,11.76,23.61,11.99,23.41,12.14z"/>
	<path fill="#F7D54D" d="M25.11,7.28c-0.21,0.1-0.38,0.35-0.66,0.15c-0.35,0.04-0.47-0.33-0.75-0.42c-0.14-0.08-0.32-0.01-0.45-0.14
		c-0.02-0.08-0.02-0.16,0.02-0.24c0.33-0.41,0.58-0.04,0.83,0.11c0.28,0.17,0.5,0.47,0.89,0.32C25.1,7.1,25.15,7.17,25.11,7.28z"/>
	<path fill="#DE4616" d="M23.04,11.09c-0.17-0.31-0.33-0.63-0.5-0.94c0.07-0.15,0.28-0.18,0.29-0.38c0.15,0.08,0.3,0.16,0.45,0.24
		c0,0.09,0.01,0.18,0.01,0.26C23.17,10.54,23.41,10.91,23.04,11.09z"/>
	<path fill="#F57B24" d="M20,12.41c0.5-0.34,0.5-0.34,1.36,0.46C20.84,12.88,20.5,12.53,20,12.41z"/>
	<path fill="#3B2643" d="M23.04,11.09c0.08-0.27,0.17-0.54,0.25-0.81c0.03,0.09,0.07,0.18,0.1,0.27c-0.1,0.32-0.05,0.56,0.32,0.64
		c-0.06,0.11-0.19,0.05-0.27,0.12C23.28,11.28,23.13,11.25,23.04,11.09z"/>
	<path fill="#EFEFEA" d="M23.27,6.63c0.02,0.09,0.04,0.18,0.06,0.27c0.15,0.34,0.36,0.65,0.39,1.03c-0.01,0.05-0.01,0.11-0.02,0.16
		C23.17,7.73,22.93,7.27,23.27,6.63z"/>
	<path fill="#E7DF73" d="M25.11,7.28c-0.04-0.07-0.08-0.14-0.12-0.21c0.23-0.01,0.53-0.31,0.63,0.17c0,0.04-0.01,0.09-0.03,0.12
		c-0.08,0.17-0.2,0.14-0.33,0.08C25.2,7.39,25.16,7.34,25.11,7.28z"/>
	<path fill="#371E2E" d="M23.67,8.71c0.24-0.29,0.49-0.57,0.73-0.86c0.13,0.35-0.11,0.43-0.18,0.62c-0.13,0.12-0.27,0.24-0.4,0.36
		C23.77,8.79,23.72,8.75,23.67,8.71z"/>
	<path fill="#2B7BAF" d="M7.44,17.52c0.12,0.69,0.49,1.25,0.87,1.81c0.06,0.12,0.12,0.25,0.18,0.37c-0.07,0.36-0.31,0.14-0.42,0.08
		c-0.35-0.18-0.74-0.31-1.02-0.6c0.03-0.08,0.06-0.16,0.08-0.24c0.04-0.13,0.15-0.32-0.08-0.34c-0.15-0.02-0.1,0.19-0.14,0.3
		c-0.53-0.07-0.74-0.49-0.98-0.9c-0.05-0.09-0.1-0.18-0.15-0.27c-0.19-0.06-0.34-0.17-0.45-0.34c-0.72-1.14-1.27-2.33-1.11-3.74
		c0.28-1.57,1.07-2.83,2.21-3.9c0.43-0.18,0.54,0.2,0.72,0.43c0.14,0.18,0.29,0.37,0.32,0.62c-0.19,0.23-0.38,0.46-0.61,0.73
		c0.61,0.19,1.25-0.21,1.78,0.19c-1.5,1.44-1.73,3.23-1.39,5.18C7.28,17.12,7.37,17.32,7.44,17.52z"/>
	<path fill="#24629A" d="M4.22,13.67c0.17,1.5,0.61,2.89,1.56,4.07c-0.02,0.02-0.04,0.03-0.04,0.05c-0.25,1.08-0.38,1.12-1.37,0.38
		c0.13,0.37,0.31,0.55,0.58,0.63c0.79,0.23,0.79,0.22,0.58,1.06l0-0.01c-0.26,0-0.53,0.04-0.78-0.1c-0.5-1.04-0.7-2.15-0.79-3.29
		C4.01,15.51,3.86,14.57,4.22,13.67z"/>
	<path fill="#2674A8" d="M12.74,12.4c-1-0.02-2-0.14-2.99,0.07c-0.18,0.01-0.37,0.02-0.57,0.03c0.11-0.46,0.65-0.57,0.72-1.02
		c-0.13-0.16-0.45-0.23-0.25-0.54c0.6-0.02,1.16,0.17,1.7,0.37c0.27,0.1,0.43,0.01,0.63-0.1c0.26,0.34,0.64-0.21,0.9,0.12
		C12.54,11.85,12.54,11.85,12.74,12.4z"/>
	<path fill="#2A7DB0" d="M9.64,10.94c-0.02,0.23,0.2,0.35,0.25,0.54c-0.31-0.01-0.61-0.04-0.9-0.16c0.4-0.44-0.29-0.57-0.26-0.9
		c0.12-0.07,0.25-0.15,0.41-0.25c-0.3-0.2-0.56-0.36-0.81-0.55C8.09,9.43,7.85,9.22,7.53,8.95c0.69-0.19,1.27-0.01,1.86,0.09
		c0.21,0.04,0.42,0.22,0.65,0.07c0.18,0.29,0.19,0.65,0.42,0.93c0.18,0.21-0.01,0.32-0.18,0.45C10.08,10.65,9.7,10.57,9.64,10.94z"
		/>
	<path fill="#2C93C4" d="M8.1,7.54c-0.68-0.42-1.19-0.99-1.56-1.7C6.6,5.66,6.69,5.75,6.77,5.82c1.47,1.24,3.2,1.86,5.07,2.12
		c-0.17,0.17-0.34,0.34-0.51,0.5C10.3,7.96,9.11,8.08,8.1,7.54z"/>
	<path fill="#28528C" d="M7.46,10.81C7,10.58,7.03,9.85,6.43,9.77c0.03-0.03,0.05-0.07,0.08-0.1c0.8-0.59,0.8-0.59,1.58,0.02
		c0.19,0.14,0.38,0.27,0.62,0.44C8.28,10.37,7.87,10.59,7.46,10.81z"/>
	<path fill="#2674A8" d="M8.75,10.43c0.1,0.08,0.18,0.18,0.29,0.22c0.68,0.27,0.38,0.47-0.03,0.68c-0.52,0-1.05,0-1.67,0
		C7.76,10.84,8.21,10.57,8.75,10.43z"/>
	<path fill="#0E0F32" d="M12.38,8.74c0.64,0.26,1.39,0.34,1.8,1.01C13.38,10.16,12.75,9.81,12.38,8.74z"/>
	<path fill="#112445" d="M15.98,11.04c0.47-0.16,0.72-0.19,0.83,0.27C16.55,11.22,16.35,11.16,15.98,11.04z"/>
	<path fill="#23639B" d="M7.05,19.18c0.35-0.06,0.55,0.26,0.84,0.35c0.2,0.06,0.35,0.33,0.6,0.17c0.43,0.26,0.41,0.74,0.49,1.15
		c0.07,0.38-0.24,0.52-0.58,0.5c-0.16-0.01-0.32-0.08-0.5-0.13c-0.05,0.24,0.13,0.37,0.17,0.55c0.05,0.23-0.05,0.39-0.23,0.49
		c-0.22,0.12-0.46,0.1-0.67-0.04c-0.15-0.1-0.25-0.21-0.17-0.43c0.11-0.3,0.08-0.61,0.54-0.73c0.55-0.15,0.56-0.65,0.11-1.24
		c-0.12,0.16,0.04,0.29,0.05,0.43c0.02,0.22,0.08,0.46-0.16,0.58c-0.25,0.13-0.51,0.07-0.73-0.09c-0.26-0.19,0.01-0.34,0.07-0.5
		c0.07-0.22,0.08-0.43,0-0.64C6.79,19.39,6.87,19.27,7.05,19.18z"/>
	<path fill="#1D2C68" d="M8.22,24.55c-0.3-0.26-0.6-0.53-0.9-0.79c0.01-0.19,0.08-0.21,0.23-0.1c0.38,0.26,0.78,0.28,1.19,0.1l0,0
		c0.05,0.13,0.13,0.24,0.27,0.25c0.38,0.04,0.58,0.27,0.43,0.61c-0.17,0.38-0.51,0.42-0.87,0.2C8.46,24.75,8.34,24.65,8.22,24.55z"
		/>
	<path fill="#225F98" d="M9.52,22.59c0.03-0.15,0.11-0.31,0.07-0.44c-0.23-0.76,0.49-0.5,0.69-0.55c0.37-0.08,0.48,0.38,0.49,0.67
		c0.01,0.37-0.31,0.48-0.64,0.45C9.92,22.7,9.72,22.63,9.52,22.59L9.52,22.59z"/>
	<path fill="#215B95" d="M12.62,23.51c-0.1,0.43-0.42,0.51-0.79,0.48c-0.39-0.03-0.37-0.34-0.4-0.62c-0.01-0.13-0.19-0.35,0.07-0.35
		c0.32,0,0.65-0.43,0.97-0.01C12.66,23.13,12.75,23.29,12.62,23.51z"/>
	<path fill="#215C94" d="M10.73,24.02c-0.71,0.06-0.59-0.53-0.62-0.89c-0.03-0.33,0.43-0.3,0.59-0.29c0.37,0.02,0.56,0.39,0.59,0.73
		C11.32,23.9,11.03,24.01,10.73,24.02z"/>
	<path fill="#215E98" d="M9.25,22.59c0.09,0,0.18,0,0.26,0c0,0-0.01,0-0.01,0c0,0.02,0,0.05,0.02,0.06c0.2,0.31,0.62,0.6,0.38,1.01
		c-0.29,0.49-0.76,0.18-1.16,0.1c0,0,0,0,0,0C8.95,23.38,8.85,22.87,9.25,22.59C9.26,22.59,9.25,22.59,9.25,22.59z"/>
	<path fill="#225E96" d="M9.26,22.59c-0.17,0-0.35,0.03-0.51-0.01c-0.23-0.05-0.59-0.04-0.53-0.39c0.03-0.21-0.18-0.6,0.31-0.65
		c0.34-0.04,0.61-0.1,0.78,0.32C9.41,22.13,9.36,22.35,9.26,22.59C9.25,22.59,9.26,22.59,9.26,22.59z"/>
	<path fill="#215E96" d="M5.52,19.84c0.31-0.06,0.23-0.38,0.34-0.59c0.26,0.1,0.57,0.13,0.74,0.31c0.18,0.17,0.16,0.5,0.02,0.73
		c-0.18,0.31-0.45,0.15-0.68,0.06C5.71,20.27,5.54,20.12,5.52,19.84C5.52,19.84,5.52,19.84,5.52,19.84z"/>
	<path fill="#225F99" d="M5.65,21.54c0-0.05,0-0.1-0.01-0.15c0.09-0.09,0.18-0.18,0.26-0.27c0.15-0.17,0.06-0.69,0.5-0.42
		c0.3,0.18,0.61,0.46,0.42,0.9c-0.17,0.41-0.51,0.3-0.82,0.18C5.89,21.73,5.77,21.62,5.65,21.54z"/>
	<path fill="#1F548D" d="M12.99,24.03c-0.03,0.26,0.21,0.43,0.24,0.67c-0.32,0.19-0.68,0.09-1.02,0.12c-0.1-0.18-0.2-0.37-0.31-0.57
		c0.3-0.2,0.91-0.07,0.81-0.72c-0.04-0.14,0.02-0.18,0.15-0.14C12.99,23.58,13.01,23.8,12.99,24.03z"/>
	<path fill="#205D96" d="M6.4,22.61c-0.13-0.14-0.25-0.27-0.38-0.41c0.6-0.43,0.95,0.24,1.42,0.38c0.23,0.07,0.2,0.44,0.01,0.67
		C6.93,23.32,6.71,22.89,6.4,22.61z"/>
	<path fill="#215C95" d="M8.73,23.19c-0.07,0.31-0.25,0.48-0.55,0.44c-0.21-0.03-0.6-0.09-0.42-0.39c0.16-0.26-0.28-0.74,0.2-0.72
		C8.25,22.53,8.67,22.74,8.73,23.19z"/>
	<path fill="#1E2E6C" d="M10.55,24.55c0.26,0.29,0.11,0.52-0.13,0.69c-0.25,0.18-0.56,0.14-0.76-0.06
		c-0.27-0.26,0.17-0.48,0.11-0.75C10.07,24.13,10.3,24.4,10.55,24.55z"/>
	<path fill="#225B93" d="M10.88,21.79c0.38,0.19,0.68,0.34,0.98,0.49c0.33,0.16,0.2,0.31-0.01,0.45c-0.45,0.29-0.85,0.07-0.9-0.47
		C10.93,22.13,10.91,22,10.88,21.79z"/>
	<path fill="#25639D" d="M5.92,18.01c0.33,0.3,0.65,0.6,0.98,0.9c-0.22,0.46-0.54,0.3-0.86,0.15c-0.37-0.17-0.35-0.42-0.17-0.73
		C5.92,18.24,5.91,18.11,5.92,18.01z"/>
	<path fill="#215D94" d="M5.64,21.26c-0.53-0.2-0.55-0.76-0.79-1.16C5.65,20.1,5.9,20.46,5.64,21.26z"/>
	<path fill="#1E2E68" d="M11.83,24.55c0.24,0.25,0.13,0.46-0.08,0.65c-0.21,0.19-0.48,0.17-0.71,0.09
		c-0.33-0.12-0.04-0.41-0.11-0.61C11.2,24.42,11.53,24.59,11.83,24.55z"/>
	<path fill="#1F5B94" d="M11.83,24.55c-0.25,0.38-0.61,0-0.9,0.13c-0.1-0.14-0.35-0.35-0.15-0.45c0.19-0.1,0.48-0.35,0.74-0.08
		C11.63,24.28,11.73,24.42,11.83,24.55z"/>
	<path fill="#27639B" d="M9.17,20.49c0.34,0.29,0.61,0.52,0.88,0.76c0.03,0.03,0.04,0.07,0.06,0.11
		C9.44,21.69,9.26,21.54,9.17,20.49z"/>
	<path fill="#2E2D50" d="M12.86,23.39c-0.05,0.05-0.1,0.09-0.15,0.14c-0.03-0.01-0.06-0.02-0.09-0.02c-0.05-0.17-0.1-0.33-0.15-0.5
		c0.11-0.21-0.03-0.52,0.26-0.66c0.27,0.07,0.55,0.14,0.82,0.21c-0.11,0.01-0.22,0.02-0.33,0.03c-0.09,0.01-0.18,0.02-0.26,0.03
		c-0.47,0.17,0.09,0.33,0,0.49C12.93,23.21,12.9,23.3,12.86,23.39z"/>
	<path fill="#215A93" d="M10.55,24.55c-0.26-0.03-0.51-0.2-0.78-0.12C9.54,24.1,9.7,24,10.01,24.04
		C10.28,24.09,10.46,24.28,10.55,24.55z"/>
	<path fill="#1D2C68" d="M6.4,22.61c0.35,0.21,0.7,0.43,1.05,0.64c-0.09,0.09-0.17,0.18-0.26,0.27C6.88,23.25,6.55,23.02,6.4,22.61z
		"/>
	<path fill="#12103D" d="M24.4,10.01c0.1-0.64,0.05-1.33,0.66-1.93c0,0.69-0.35,1.23-0.21,1.81c0.25,0.22,0.16,0.59,0.39,0.82
		c0.03,0.3,0.34,0.27,0.51,0.45c-0.17,0.2-0.55-0.18-0.64,0.24c-0.03,0.13-0.11-0.01-0.14-0.07C24.75,10.9,24.34,10.55,24.4,10.01z"
		/>
	<path fill="#EC8322" d="M27.35,9.52c0.12,0.38-0.17,0.47-0.41,0.6c-0.08,0.02-0.17,0.02-0.25-0.01c-0.05-0.03-0.1-0.06-0.14-0.1
		c-0.17-0.2-0.43-0.32-0.51-0.6c-0.05-0.56,0.21-0.52,0.57-0.3C26.85,9.25,27.13,9.32,27.35,9.52z"/>
	<path fill="#F6F6F7" d="M26.27,10.83c-0.36,0.54-0.43-0.18-0.67-0.16c-0.16-0.3-0.02-0.51,0.22-0.68c0.27-0.05,0.55-0.17,0.81,0.04
		l0.02,0.01c0.19,0.25-0.07,0.33-0.17,0.47C26.41,10.62,26.14,10.59,26.27,10.83z"/>
	<path fill="#DDDDE1" d="M26.78,11.33c-0.16-0.15-0.33-0.3-0.12-0.52c0.21-0.22,0.3,0.04,0.4,0.13c0.23,0.2,0.84,0.02,0.67,0.54
		c-0.06,0.19-0.56-0.07-0.85-0.13C26.85,11.37,26.81,11.37,26.78,11.33z"/>
	<path fill="#1D152E" d="M25.86,10c-0.02,0.25-0.35,0.38-0.26,0.67c-0.12-0.04-0.25-0.08-0.37-0.12c-0.1-0.27-0.13-0.55-0.06-0.83
		c0.01-0.38-0.02-0.77,0.28-1.14c0.14,0.34-0.04,0.62-0.03,0.91c0,0.14-0.15,0.38,0.18,0.36C25.74,9.81,25.81,9.89,25.86,10z"/>
	<path fill="#E1E1E4" d="M26.12,8.52c0.05-0.56,0.3,0,0.44-0.09c0.07-0.09,0.14-0.18,0.21-0.27c0.14,0.16,0.25,0.36,0.41,0.46
		c0.35,0.21,0.12,0.35-0.02,0.51c-0.28,0.04-0.43-0.25-0.68-0.27C26.31,8.8,26.14,8.74,26.12,8.52z"/>
	<path fill="#303042" d="M26.78,11.33c0.03,0.02,0.07,0.02,0.11,0.01c0.25,0.71,0.81,0.29,1.24,0.36c-0.02,0.05-0.04,0.1-0.07,0.16
		c-0.65,0.23-1.25,0.2-1.77-0.31C26.38,11.3,26.63,11.43,26.78,11.33z"/>
	<path fill="#352B34" d="M26.53,8.75c0.3-0.04,0.44,0.22,0.63,0.38c0.06,0.13,0.13,0.26,0.19,0.39c-0.29-0.05-0.59-0.1-0.84-0.26
		C26.43,9.08,26.37,8.91,26.53,8.75z"/>
	<path fill="#EAEBEE" d="M25.18,9.72c0.1,0.27,0.23,0.54,0.06,0.83c0,0.05-0.01,0.1-0.01,0.15c-0.44-0.12-0.43-0.46-0.39-0.82
		C24.95,9.83,25.07,9.77,25.18,9.72z"/>
	<path fill="#221C36" d="M23.44,11.31c0.09-0.04,0.18-0.08,0.27-0.12c0.58-0.04,0.47,0.48,0.63,0.79c0.06,0.18,0.47-0.07,0.37,0.31
		c-0.28,0.17-0.51,0.08-0.7-0.16c-0.13-0.27-0.23-0.56-0.47-0.76C23.5,11.35,23.47,11.34,23.44,11.31z"/>
	<path fill="#333456" d="M24.71,12.22c-0.09-0.14-0.32-0.05-0.38-0.24c0.52,0.02,1.04,0.03,1.55,0.05
		c-0.26,0.07-0.52,0.14-0.78,0.21C24.97,12.35,24.84,12.37,24.71,12.22z"/>
	<path fill="#F3722B" d="M23.95,9.63c0.09,0.14,0.18,0.29,0.27,0.43c-0.11,0.15-0.22,0.3-0.42,0.58C23.8,10.2,23.84,9.91,23.95,9.63
		z"/>
	<path fill="#312D3B" d="M26.27,10.83c-0.23-0.12-0.12-0.21,0.02-0.3c0.18-0.11,0.37-0.22,0.35-0.49c0.12-0.06,0.2,0.01,0.29,0.07
		C26.78,10.42,26.52,10.62,26.27,10.83z"/>
	<path fill="#298EC0" d="M11.71,7.65c-1.63-0.01-2.25-0.71-2.69-2.34c0.15-0.08,0.27-0.07,0.37,0.11
		C9.92,6.41,10.81,7.03,11.71,7.65z"/>
	<path fill="#F05817" d="M16.22,20.62c-0.08,0-0.15,0.01-0.23,0.01c-0.38-0.51-0.94-0.82-1.23-1.48c-0.32-0.71-0.14-1.09,0.3-1.53
		c0.42,0.12,0.34,0.49,0.39,0.79C15.57,19.19,16.1,19.83,16.22,20.62z"/>
	<path fill="#E54814" d="M15.44,18.4c-0.18-0.24-0.16-0.58-0.39-0.79c0.1-0.28,0.2-0.56,0.31-0.82c0.17-0.4,0.31-0.22,0.43,0.04
		C15.33,17.27,15.65,17.9,15.44,18.4z"/>
	<path fill="#ECECEE" d="M13.29,2.84c0.53-0.15,0.75,0.05,0.71,0.61C13.98,3.94,14.02,4.44,14,4.93c-0.02,0.53-0.21,0.61-0.73,0.36
		C13.15,4.47,13.11,3.65,13.29,2.84z"/>
	<path fill="#000019" d="M13.29,2.84c-0.01,0.82-0.02,1.63-0.02,2.45c-0.02,0.01-0.04,0.02-0.05,0.03
		C13.11,4.49,12.97,3.66,13.29,2.84z"/>
	<path fill="#FCBB36" d="M28.06,16.84c0.81,1.05,0.9,2.13,0.12,3.25c-0.46-0.46-0.62-1.08-0.7-1.69c-0.05-0.41,0.12-0.84,0.23-1.26
		C27.76,16.98,27.84,16.81,28.06,16.84z"/>
	<path fill="#F38E1E" d="M28.06,16.84c-0.29,0.7-0.59,1.39-0.25,2.17c0.15,0.35,0.25,0.72,0.38,1.08c0.01,0.11-0.02,0.21-0.11,0.28
		c-0.62-0.34-0.72-1.03-1.03-1.57c-0.08-0.83,0.14-1.57,0.64-2.23c0.19-0.19-0.09-0.49,0.15-0.67
		C28.03,16.18,27.84,16.56,28.06,16.84z"/>
	<path fill="#FAC033" d="M27.83,15.89c-0.07,0.22,0.08,0.49-0.15,0.67c-0.05-0.63-0.33-1.18-0.56-1.74
		c-0.03-0.08-0.1-0.21-0.23-0.09c-0.52-0.37-1.09-0.68-1.52-1.17c0.13,0.03,0.25,0.06,0.38,0.09c0.65,0.35,1.51,0.37,1.84,1.25
		C27.7,15.23,27.84,15.54,27.83,15.89z"/>
	<path fill="#F97621" d="M27.04,18.79c0.53,0.4,0.61,1.1,1.03,1.57c-0.05,0.21-0.11,0.41-0.31,0.59c-0.31-0.43-0.65-0.84-0.92-1.29
		C26.67,19.36,26.78,19.04,27.04,18.79z"/>
	<path fill="#6A3A2F" d="M16.45,18.68c-0.04,0.04-0.09,0.09-0.13,0.13c-0.2-0.23-0.25-0.52-0.32-0.87
		C16.27,18.17,16.35,18.43,16.45,18.68z"/>
	<path fill="#F58928" d="M7.72,16.95c-0.32,0.05-0.34-0.2-0.35-0.41c-0.03-0.35-0.05-0.69-0.05-1.04c0-0.16-0.1-0.39,0.1-0.46
		c0.16-0.05,0.3,0.11,0.42,0.23C7.79,15.83,7.95,16.4,7.72,16.95z"/>
	<path fill="#F3F4F4" d="M6.76,24.84c0.1,0.05,0.21,0.12,0.18,0.24c-0.04,0.2-0.18,0.33-0.38,0.38c-0.12,0.03-0.25-0.1-0.23-0.17
		C6.41,25.08,6.59,24.96,6.76,24.84z"/>
	<path fill="#F98527" d="M8.59,13.55c-0.45,0.36-0.45,0.97-0.74,1.41c-0.66-0.21-0.43-0.67-0.3-1.1
		C7.84,12.88,7.84,12.88,8.59,13.55z"/>
	<path fill="#EFEFF0" d="M11.55,28.16c-0.19,0.44-0.35,0.84-0.52,1.23c-0.05,0.11-0.15,0.16-0.26,0.1c-0.11-0.05-0.15-0.17-0.1-0.27
		c0.16-0.4,0.34-0.79,0.51-1.18c0.04-0.09,0.13-0.13,0.21-0.08C11.46,28.01,11.51,28.11,11.55,28.16z"/>
	<path fill="#DCDCDF" d="M22.51,28.07c0.01,0.19-0.07,0.32-0.21,0.29c-0.22-0.04-0.22-0.29-0.3-0.45c-0.05-0.11,0.06-0.21,0.17-0.21
		C22.43,27.71,22.41,27.96,22.51,28.07z"/>
	<path fill="#EDEEEF" d="M4.58,24.68c-0.1-0.06-0.18-0.1-0.24-0.16c-0.09-0.1-0.03-0.18,0.07-0.26c0.32-0.24,0.63-0.5,0.94-0.75
		c0.1-0.08,0.19-0.1,0.27,0c0.04,0.06,0.09,0.2,0.06,0.22C5.33,24.05,4.96,24.36,4.58,24.68z"/>
	<path fill="#25689E" d="M12.74,12.4c-0.57-0.5-0.8-0.64,0.13-1.08c0.51,0.29,0.87,0.76,1.28,1.16c0.29,0.29,0.57,0.59,1.03,0.57
		c0.07,0.17,0.43,0.03,0.37,0.33c-0.04,0.21-0.19,0.35-0.4,0.45c-0.21,0.1-0.46,0.04-0.64,0.23c-0.29-0.42-0.38-1-0.95-1.19
		C13.35,12.61,13,12.58,12.74,12.4z"/>
	<path fill="#BABAC1" d="M7.88,26.57c0.01,0.26-0.06,0.47-0.27,0.58c-0.03,0.02-0.18-0.09-0.18-0.13
		C7.45,26.76,7.69,26.69,7.88,26.57z"/>
	<path fill="#CDCED3" d="M25.76,25.86c0.23,0.11,0.49,0.19,0.55,0.47c0.01,0.03-0.15,0.16-0.17,0.14
		C25.92,26.34,25.82,26.12,25.76,25.86z"/>
	<path fill="#D4D3D4" d="M24.71,12.22c0.13,0.01,0.26,0.01,0.39,0.02c-0.06,0.12-0.13,0.25-0.19,0.37
		c-0.02,0.01-0.05,0.02-0.07,0.02c-0.38,0.05-0.84-0.05-0.9,0.54c-0.09-0.22-0.18-0.44-0.27-0.65c-0.05-0.3-0.25-0.57-0.16-0.9
		c0.38-0.12,0.38,0.28,0.57,0.44C24.23,12.34,24.48,12.25,24.71,12.22z"/>
	<path fill="#FBFAFA" d="M25.75,19.7c0.09,0.23,0.28,0.28,0.49,0.27c0.17,0.3,0.14,0.63,0.01,0.92c-0.16,0.37-0.15,0.7,0.04,1.04
		c0.17,0.52,0.04,0.97-0.34,1.34c-0.44,0.43-0.68,1.08-1.34,1.26c-0.07-0.27-0.12-0.55-0.23-0.81c-0.3-0.74-0.45-1.49-0.3-2.28
		c0.05-0.1,0.14-0.12,0.24-0.12c0.17,0.02,0.33,0.04,0.5,0c0.41-0.1,0.68,0.03,0.71,0.37c-0.09-0.2-0.14-0.52-0.02-0.85
		c0.08-0.23,0.05-0.47,0.02-0.71C25.51,19.96,25.44,19.72,25.75,19.7z"/>
	<path fill="#FCFAF9" d="M23.95,20.75c0.04-0.26,0.09-0.52,0.13-0.78c0.34-0.09,0.7-0.04,1.05-0.08c0.63-0.04,0.5,0.41,0.49,0.78
		c-0.09,0.67-0.57,0.72-1.09,0.72C24.22,21.29,23.96,21.14,23.95,20.75z"/>
	<path fill="#D83B19" d="M23.82,18.51c0.48-0.15,0.96-0.3,1.56-0.48c-0.38,0.44-0.87,0.47-1.19,0.75
		C24.13,18.6,23.71,18.93,23.82,18.51z"/>
	<path fill="#D42C08" d="M25.1,19.95c-0.34,0.06-0.68,0.17-1.03,0.03c-0.09-0.26-0.3-0.45-0.44-0.67c-0.14-0.23,0.06-0.14,0.16-0.12
		c0.31,0.48,0.7,0.78,1.3,0.64c0.03,0.03,0.04,0.06,0.03,0.09C25.12,19.94,25.11,19.95,25.1,19.95z"/>
	<path fill="#DB3B0D" d="M22.41,19.32c0.44-0.15,0.74-0.2,0.95-0.43C23.21,19.21,23.07,19.54,22.41,19.32z"/>
	<path fill="#E24412" d="M23.61,22.62c-0.2-0.3-0.38-0.6-0.42-1.06C23.59,21.87,23.55,22.26,23.61,22.62z"/>
	<path fill="#D52003" d="M23.95,20.75c0.17,0.18,0.34,0.36,0.51,0.54c0.02,0.12-0.01,0.19-0.15,0.13c-0.07,0-0.15,0.01-0.22,0.01
		c-0.12-0.2-0.27-0.38-0.34-0.6C23.67,20.58,23.86,20.74,23.95,20.75z"/>
	<path fill="#D33413" d="M25.35,16.47c0,0.39,0.22,0.89-0.47,0.91c-0.06-0.01-0.12-0.03-0.18-0.04c0.01-0.04,0.03-0.08,0.04-0.12
		C25.27,17.24,25.16,16.73,25.35,16.47z"/>
	<path fill="#D14C27" d="M25.1,19.95c0-0.04,0-0.09,0-0.13c0.3-0.08,0.5-0.26,0.53-0.63c0.19,0.2,0.09,0.36,0.11,0.51
		c-0.25,0.38,0.16,0.83-0.11,1.21c-0.12-0.06-0.05-0.2-0.12-0.28C25.62,20.25,25.64,19.93,25.1,19.95z"/>
	<path fill="#ED4E17" d="M23.73,7.94c-0.26-0.29-0.47-0.61-0.39-1.03c0.1-0.1,0.19-0.25,0.35-0.09c0.23,0.27,0.49,0.52,0.77,0.72
		C24.24,7.72,24.19,8.22,23.73,7.94z"/>
	<path fill="#1E1A3B" d="M26.53,8.75c-0.01,0.17-0.01,0.33-0.02,0.5c-0.15-0.02-0.17-0.32-0.33-0.2c-0.14,0.1-0.04,0.31,0,0.47
		c-0.02,0.08-0.06,0.15-0.16,0.12c-0.13-0.04-0.19-0.13-0.15-0.27c0.25-0.59-0.35-0.85-0.48-1.3c0.04-0.11,0.09-0.19,0.23-0.13
		c0.09,0.26,0.34,0.4,0.5,0.59C26.22,8.66,26.36,8.72,26.53,8.75z"/>
	<path fill="#E3A737" d="M25.86,9.36c0.13,0,0.06,0.4,0.31,0.15c0.14,0.18,0.47,0.19,0.46,0.52c-0.25-0.04-0.52,0.24-0.76-0.03
		c-0.09-0.05-0.18-0.1-0.26-0.15C25.69,9.69,25.78,9.53,25.86,9.36z"/>
	<path fill="#4C2D2A" d="M25.61,7.93c-0.08,0.04-0.15,0.09-0.23,0.13c-0.23-0.16-0.53-0.31-0.14-0.62c0.11-0.03,0.22-0.05,0.33-0.08
		C25.54,7.56,25.49,7.75,25.61,7.93z"/>
	<path fill="#7D3E2E" d="M24.46,7.54c-0.4-0.08-0.62-0.36-0.77-0.72c0.26,0.2,0.51,0.41,0.77,0.61C24.46,7.47,24.46,7.5,24.46,7.54z
		"/>
	<path fill="#432F38" d="M23.57,11.62c0.03,0.3,0.07,0.6,0.1,0.9c-0.09-0.13-0.17-0.25-0.26-0.38c0.06-0.22-0.26-0.44,0.01-0.66
		C23.49,11.51,23.57,11.52,23.57,11.62z"/>
	<path fill="#E55820" d="M23.57,11.62c-0.05-0.05-0.1-0.09-0.15-0.14c0.04-0.04,0.08-0.08,0.12-0.11c0.47,0,0.49,0.35,0.54,0.69
		C23.91,11.91,23.74,11.76,23.57,11.62z"/>
	<path fill="#D9AF25" d="M12.82,9.11c0.4,0.15,0.76,0.2,1.03,0.6C13.36,9.75,13.03,9.65,12.82,9.11z"/>
	<path fill="#CD3B1E" d="M25.51,20.63c0.04,0.09,0.08,0.19,0.12,0.28c-0.11,0.33-0.01,0.67-0.06,1.18c-0.14-0.63-0.42-0.77-0.86-0.6
		c-0.13,0.05-0.29,0.07-0.41-0.07c0.05-0.04,0.1-0.09,0.15-0.13C24.94,21.28,25.47,21.35,25.51,20.63z"/>
</g>
</svg>
